<mxfile host="app.diagrams.net" modified="2023-12-29T16:10:36.353Z" agent="Mozilla/5.0 (Windows NT 10.0; Win64; x64) AppleWebKit/537.36 (KHTML, like Gecko) Chrome/120.0.0.0 Safari/537.36 Edg/120.0.0.0" etag="avIUopP0ug92n_0GBEed" version="22.1.16" type="device">
  <diagram name="Trang-1" id="PJ-x2nMEQ3jNkPYEn75z">
    <mxGraphModel dx="2213" dy="1260" grid="1" gridSize="10" guides="1" tooltips="1" connect="1" arrows="1" fold="1" page="1" pageScale="1" pageWidth="827" pageHeight="1169" math="0" shadow="0">
      <root>
        <mxCell id="0" />
        <mxCell id="1" parent="0" />
        <mxCell id="ZDsZUf2bHUpJwc5B0b4f-3" value="" style="rounded=0;whiteSpace=wrap;html=1;fillColor=#f5f5f5;fontColor=#333333;strokeColor=#666666;" parent="1" vertex="1">
          <mxGeometry x="220" width="580" height="840" as="geometry" />
        </mxCell>
        <mxCell id="z8v7z7G2F0ZjTP9mHvDK-2" value="" style="rounded=1;whiteSpace=wrap;html=1;fontSize=16;fillColor=#ffcc99;strokeColor=#36393d;" parent="1" vertex="1">
          <mxGeometry x="280" y="40" width="440" height="200" as="geometry" />
        </mxCell>
        <mxCell id="z8v7z7G2F0ZjTP9mHvDK-3" value="" style="shape=image;verticalLabelPosition=bottom;labelBackgroundColor=default;verticalAlign=top;aspect=fixed;imageAspect=0;image=data:image/png,iVBORw0KGgoAAAANSUhEUgAAAIAAAAB8CAYAAAChbripAAAABmJLR0QA/wD/AP+gvaeTAAAgAElEQVR4nO2dd3hUVfrHP+dOS2Ymk0oIRXpTepOOomDZVRQRBbuuZV1dFxVsuJZdyxbX8nNduyI2LOtasFKkCoj0XkIRAgmkkUmmzz2/PyYzmUwmYSaZOwnrfp8Hntxz23vnvOec97wVfkGQUgop5dlSyjellDuklA4pZZGUcpOU8kkpZb/mpvF/0ABSSkVKeaGUco08MZZLKS9sbpr/hwRASmmQUl4jpdweQ8dHYq2UcoqUUjT3d2iJ/8qPk1KagRuBGcApEaddh4751i/b6vLtPeI32cyK95RWiu/sAalZaWalN6BEXL8ReBL4SAihak99cvFfxQBSynTgNuAPQG6tc1A6f51z818/rOhfXuXPiHZ/x9a6g49elbW/byfD6YAp4vQu4K/AO0IIjwbkNwv+KxhASpkD3A7cAWSGn1MlxQs3OLc+9v7xgZVO1RbL87JtSvHMS9O3jh+QOlAIIu8pBJ4FnhdCOBJBf3PipGYAKWVr4E7g94A5/Jxf5dDHyyr3PveZfajbK1Mb8/x0i2K/Z0r6pnMHp54mIhgLKAZeAJ4TQpQ15vktASclA0gpOwPTgZuBlPBzHj8/z5lvP/zK1/YhfhV9It5nMYmq2y5MWztljLWHopAXcdoOvAn8RQhxJBHvSyZOKgaQUvYFZgLToHbnujxy5+vzK4tnf2cfrqrotHi/QS88V4+3rrn5vLR2Bh2dIk67gbeAx4QQB7V4vxY4KRhASjkQuB+4lAia7Q5189P/qXB9sdoxRMrkfI8iUC8ba119x0VpuSaD6Bpx2gN8ADwuhNiZDHqaghbNAFLK0cC9wAWR58qr1K1/fq+cxZtcvZNPWQCKQL1gmHntjEvTzRaTiKRDBb4CHhFCrG0G8mJCi2OAasXLBcADwPCI02phuX/tQ2+VWdfu8ZyafOrqx8hTUzbPuiLdlZehGxrl9ALgISHEymTTdSK0GAaQUirAr4FHgEERp735R3w/znqrrM3uAm+XpBMXB0acatr84BUZrrwM3RDq/r4rgL8KIb5oBtKiotkZQEppBKYCs4AeEafduwp86+97s7TjgSJfm+RT13j06WTc9dAVGce6ttEPhzpC6QbgGQJKpWbVLjYbA0gpLdSoa9vXPkfV2j3utX+cU97raLk/N+oDThJ0yNUdnDU1Y9+Q7qZh1NUubgH+DrwnhPAln7pmYAAppQ24HrgPau+pVSlLF25wbX5ybkX/447o6tqTFe2ydYcfujJjz5DupiFEKK2A/QS0iy8LIVzJpCtpDCClbEWNnr5W56qSY9+tc+56Ym75wCqXjPxx/quQlaaU3DMlfcv4AakDhCA94nQR8BLwtBCiIhn0aM4AUsqOwF0EpvtIde3Bj5dV7nv2c/vpHo9MifqA/1JYTKLytgvT1k0Za+2lCCKXuaCa+f+EEKVa0qEZA0gpuxIwztxCxNrn9sg9r82vLHrrO/uwRKlrT1aYTUrV7Rda104ZY+2uKEQKupXAGwR2Doe1eH/CGaDarWoGcAUR0q/LI3e8+nVlxZyF9qFqkrR2JwuCauabzrO2NepE54jTbuBD4E9CiD2JfG/COkFKOYqAYPfryOcG1bWfr3JEU5I0G7q3M1BQ7MPhls1NSghB7eLMS9OtZpOIVHZ5gbnAk0KI7Yl4X5MZoCF17bHjvo0Pv31cv3qnu9nUtZEw6gW/GprKtDMtdGtroMKh8skKB3OXVHHsuL+5yQtBCOSFw8w/3TXJlppmVvpEnA6qmf8khFjTpPc09kYp5WnAi8DYiFP+g8W+FbNml+dsPeA5rSnEJRJpqQqXjjEz7Qwr2bZIry/w+iXfrnXy9sIq9hz2NgOF9WNc/9Qt912eruakKZFeyxJ4F7hbCHG0Mc9uFANIKScSWJPChTvPjkPelQ/OLuuwr8gXuYY1GzKsCpePtTDtTAtpqXU7PhpW73Tz8pd2Nu5rWZ5fg7sbdz00LaOqfSv9AGr3XSFwthBiW7zPjJsBpJRjgfmAMdhWUOJf9dvnSzocLvG1jfd5WiErTeHKcVamnmEhxdi4iW7jXg+z51eybKsL2XLEBPp3Me54/nfZ/ggL5FFgYLy7hbh+GSllKgEv2e7BpjkLq5Y99+nxyGWg2dA2S8eVZ1m5ZKQZoyExMu6uAi/vLqriq58cqC3EL1gRqG/clb2ibyfTmLDmT4QQk+N5TrwMcB0B9ycAPl/pXPLoe2VnxPMMrdA+R8+1461cNMKMLraZPm4cKvYxd0kV/17hwONt/ilBCOQnD+au6pCrHxHW3EcIsTXmZ8TzQinlN8C5AFVuufXMe4700sr9KlZ0a2vgpvOsnDUgFSXOAV9U7ueHbW5K7H5GnprCqacYEDE8o7DMz5wFlXy60oG7mRkhK00p+e6JPCEgq7rpCSHErFjvj/knqzbblgOpAH/7qGLlB0srRzR8l3bo2kbPtePTOH9IKkqMI15VYWeBl2VbXCzd7GLHIW+ttT3DqjCku4mxfVIY08eEzdzwg8sqVT5aVsW731dR6Wy+teGF27KXDO9lCs7EPwohhsV6bzwMMBwIerQ4Rt51RDTW3bop6NbWwE3nWzmrf3wj3ueXfLTMwdc/Odj+sxe1gYHbOlPH2D4p3HCOldyME09wx6tU3vu+ig+WVmFvBkYY1NW0/dXp2UGlkRfIiDVmIR4GmEHAdk1Zpbp+/P2FA+OmtAnokqfnugnxjfhwrN7p5vnPKhjbN4W+nYxUOlWWb3WzdIuLSpdKz3aGOucyrAp3TooplgQAh1vy+SoHb3xnp6QieYygCNQfn2tbGRbEcqYQYkks98ZjiBkZ/GNDvud4PAQ2BV3b6LnpvDTOHhj/Gh8OKWH7QS/bDwaUPHmZOkb3SeFvv8kkK03H4k1Olm5x8+rX9tDscPHI+CzTZpNg6hkWLhph5t/Lq3h7YRXFFdprF1WJUlKh7s5JVwZXN40CEs4AofV+4QZnWhz3NQodc/Xc8qs0JgxqWsfXh8IyPx8vq2LvES8TBqbyr3n2hD071Si46iwrU8ZY+Hh5FbPnV1Jq13ZGWJfvqTxnUMiiPirW+2JiACllN2q8d9Tl293dG7q+KcjN0HHteCuTR5sx6LQ3GIpYxP5GwmQQXDnOyuRRFj5dqe3SMH+dMz2MAUZKKZVY/A1jXU1DHOX2yHx7VWxBlvHiynFWPvljLlPPsCSl84PQYoYJR4oxsDR8+lBrTmmljfvDqh3u7kDQrzADiMltPm4G2HXYp0n8W1ZaQOBKbaTatrHQuvPDYTYJRpwa6ReaGDjcqsXpluG+AjEtA7EyQEgAXLzJqYni5/SeppiUMI2FoSGq63mvXoNZaFhPbRgAYPtBT7hFMDEMIKWsNZ0s2ujsED9pJ8aIXtr9MACDu5v41+3Z9GxvqNUuBHUYz2wS3PKrNO6OYwsYOx3GRm1jY8H3m9zhH5ewGWBk8DpVcvTno/7IlCsJwVANR0YQw3qaeOeeVvz1hkzaZAWmBAGI6ilArxNcMsrMZw+35ubz0xJmTApHWqrCaR2MJ76wEVi0wRkeNdVVShkZyl4HsUgkIU4qKPbthToerE1G5zw9rWPQuCUCioDxA1MZ3TuFuUuq2PZzwOY/tk8Kd15io4NGQlo4hnQ3smV/4n0NCsv8rf2qPKxTRNAsPwL4T0P3xMUAq3e43U2gr14M7aH96I9EilFw3QQrHl9A63PJqOSFIwzoos0MAHDwmH9/p9b6IAOMoikMIKU0ACFHzvkb3DlNpjAK+nVO/A9SWOZn+VYXPj+M7m2ifU70TzXq607zqoRtBzz8uMtDh1wdI3qlYElJ3HLQv4sRRdCgPaKxWLHN7evUOvStJ5QDTjQDDKQmmMO5ca82CqD+CRgRDVn6/v4xtMvRMaxnwNI3rJepTsdXOFR+3Olm9U43Sze7a6lwFYWQrWBMnxR6tY/NbFwfbGaFznl68o8kPhxw/jpn3pXjLMHDwVJKc0OGoRMxQGj7V16l7vL6ZP8E0FgLOTYdbbOatv473JI5Cyv55icnB49F/1ELiv18Uuxg5XY3Ewamcv051pC5d2+hj9e+sbNimzuqWVdVA3aEnQVeVm53M2WMhfOGNE1FPbCbSRMG2Pqzp5uUVFQbhgzAYGBZfdefiAFCU8jGfV5NMmH172I48UUnwMINTjbt9XDxCDM92hkoLPOzbIuLVTvd+PwyNHr7dDRSWuln2RY3X//k5PKxgZHy0pcVpBoVHrg8nWybwro9ntAskpaqcHpPE8N6mmifo2Pbz17+vaKKgV2NoZ1Eo767s5GPl1U1+dsjoaoopXZ1T7ZNCeZYGEUTGCDMAOSyNHRhY5GI9d/tlayunr4hEPAxureJG861ogjBsq2BZeGVr+2hZSFcH1BeqbJwj4t5PzowGgSDuxmZONzM471M7C/ysXSLi5e/stdaFpq6fg/sqp0guC7fbZ8wMOSq0aAcUC8DVKdiaxc8XL7F2S0x5NWGFgLg7gIvuwu8lFSo2MwK7yyqjPlej1eycrubldvdvHBbNk/MPa6JSbdNlo7WmTqKyhL/7AXrXbZwBmjIMNSQIqjGAOSV+cer1MhEiU2GUS/odUrTlwCtIKirJUwkBmq0Hfxhq6snNYahTKBnfdc2xAAhATD/iDYGoFNPMUTdhiUKTe7AKGriRCIRu59ocHik2emW+WFN9S4DMc0Aize7NPkZ+iZo+q+vk4SI0eetgV7W0liopRyw46CnKOxwZH3XRWWA6jQuoaiTRRucmuj/E7X+6+rbjzUwgsNjB/T1DAMR+i+iXZCQ2IOubQ1YYwxXixeLN7nD5bu4Z4ARVMf2q5LifYW+jgmkLYQ+nRKz/l803Mxfb8iso0+I1vfpFoXfT7RxRY2yhL/ckMl1E6x1lqNoVrveHY28+occ8jKbbrtQBPRN0G8Qie83u8INQ92llFFtOPXtAkIcc6TUlw8kXAWcbVMSZgAS1QaeMX1SeH9xFW/Or6TSqdYy9ZoMgmlnWrh+grXOqLOZA0wxZYyFF+fZ+XKNAymDlsIA8jJ1/O4CG78amppQuaB/ZyMrtyfexFJQ7MtTVQ4rCm0JfMYI4LPI607IAD/u8DoTTh3Qp2Pi1z+TIWDgmTTSzJyFlbg8MsQcf7jYdkKNY16mjkevzuCysWae+U8gR1O6RWHKGAtXjLNoIrD209IwVOw70DG3lmHoxAwgpdQBpweP5693aGIAOq2DNlNfeaXK/iIfN5yThr66v01x2vWD07zXJ3nzrpy4748HfTsFHES0CDr9Yavb2zG3YcNQNBmgP2Ct/tu9Id+jiQFIC6eI8kqVCx4u4jfPFjPz9VJMBtHozhMCjE24P1aYTYLubbUZDPM3OFuHHQ6Wsm4mtmgMEOIUu0PudPtkwo31QkDvjon/6D1HvDg9AR3tmp1uispbTsqXhqCVPmDzfk83KQmqQU0EDEO10CADbNzr1sQA1DZbR7ol8dufb9fWiCuqhPvfLGNfoQ9Vwsrtbl6cZ6fC0fBcW1zh528fHefRd8tZtUMT/5c66K+BOhxAVdGVVqm7w5rqLAPRhMCQ0mDhRpcmwZ+9EzD9e3ySf82zY00VtM/W8/0mFwvW15ZXN+71cOnjtVPn5Bd6eerGLOrD3CWBIE+AH7a5+fbx1vVemyhoKQiu3+OuGD+gfsNQLQaQUnagps6eXL7VFVkNIyFIxPT/7+UO3l5Y28iTlaZw669tDOxqxOGWfLXGwYdLq2pZ7nYdajgB1LHymhmi0pWcAM+2WTpapes0yVK2YL0rLYwBRkophRAi9ItEzsMhDvH45b5Su5qdcIpIjAD4c4TjR7ZNYe59uVwyykznPD29OxqYeWk6T1xXY8MymwR//U0WcxZWctXfjtXZf6sqbA5z1nR5ZJ1QLilh0UYXuwoSm0lMq2Xgh62uHkCQs3KISMkfyQA1BqDDvgItCBKCOr75jcH0i22cP6RmhfrDRelR079NGBRQEAFMGmlhd4GX5z6tYPtBL3e+XMqnPzjw+iWFZX4efqeMA0drM9YTH5RT5QoMGIdb8sDsMma+Vsq1TxWH/A8SgX4JcIyJhiq3tLo89RuGImWA0MllW7QxALXN1iXEwdJkEPzp6kw27/dyqNjH0B71j6ChPYws2+LCnCJqjWivX/Ln98t5/INyVDWg9Dl7QAqt0nX4VDh41McP29yc/8dCerY3sL/IF4ry9fgkby2oTFikj5aewrsKPIX9OpuCI38kgfzDQBgDSCmtQN/g8cL1znZogETueRUFurXVc6jYF3LvjgZP9Wy9eJOL16fn8MN2F+v21Ez1rTN03H6hjXMG1U0+UeWSvPd9JbMXBDSLoXeLxLqS92hvwGQQmuQc+n6jW9+vc4hRa80A4Z87nGqGkFCSX+jrlHBKCGT6SBQ8Psnu6rX4u3XR6yyoKizYENgd7C7w8tvni5l+sS3k0Dmgq5F372kVcPKMsjO1pAhuOj+N16fnkGOrUSVPn2QjTLhqMgw6oYluBGDRRle4Ma9nde0GoDYDhDijqNSXr1UNvkTt/1UJf3yrnIKSgHzz6jf2WqM6eM0/v6hgx8EagW3bz4EsIZYUhY65ep69JSsmmnqdYuCZW7IwGgRmk2DaGdYT3hPv92iFQ8W+dqpK0KlHEFaNLfzLQwLgml1ezYoiv/t9VUKyZRSV+UMjGwK+fLc8X8yj75Yzb3Ug+fMNTxfz1oLAVjE4us0mQVaaDrtT5d4p6TGnj4WA/eKKMy14feBLcI+9/GVdBk4kDhX79ocdhgZ7YMoPlGwLpRb7dr2zfk1JE3G03M+9b5Ty4u3ZTQq/bpOl49zBqXy71knnPD19OxlZs8vN56scfL6qhn875up57NpMerU3sHGfh0PFPv75eQXd2xkY1oiI5CvHWZmzsJJPVjiYekZiHKW/3+ji9e8Sl6ImGn7Y4fZ0iGIYEgBSyv4ESpkBuEfcdUT1aJwCbtqZFmZMjiyZEx/8Kvx81EfnarnC45PMml3Goo018sC797Ri1Q43L8yrqGVxu26Cld9PbFz497X/KGbbAQ/nDUnl1FOM5GYqnNk3pVEMvbfQx7VPHdO8ZsHArsbtr03PCYb5u4F0IYQ7OP+FGYDU3Vp3PsD7i6v45qemuRroFEKdDwEv4xvPS6t13KOdge/WOeuYW9tmN94ZpX22DlXCV2uc/OOT49z7ehlzl8Qf5GF3qtz9SmlSClZs2ufpLiVBIk1UF+eswwBbDnhKNKemGn9+vzwkxScKPdsbOKt/Ch1a6bnyLAuKEl3w1DXBrSfabuFIaXxqXFXCg2+V19FoagW/ir68St0V1jQKavQAIQZYtMmdtFhtl0cy47Uy3p6Zc8K0rPHg7xHGngenZvDNWgclFSqrd7rZX+TjSBMCMiI7WxGBFDfx4KUv7SzfmtQSgWzY664Y16+WYegpvZSyLRDaJy7bUsuZUHMcKvbx4Jxynr0lS7OETe1ydPzm3MDS4PVLbnuhlFU73Nz66/jTHVY6Vbbs99K/i5HbLrSRlxHQbGZYY2fgRRtdvKGx0BcNC9e7rGEMMFpKKRRgdLDF62f/sWYo1bpiayD2Lhkw6ATXT7Cy9YCnUVk6Pl7uwGQUPH1TFoO7GWmXo4ur8/OP+Hj47bJmKUCxdEsdw1A3hbAA0J+LfIeST1YAb3xrZ+mW5EyJGVYFKeEvHx6PS/V64KiPN76zM7ibMa5OD8LuVJnxanKEvmiocsk0t0fuDWsaWWv/v6PA2ywFjKFaszcnOULRh9UOH9sPenlgdlktHX99KCjxc+fLpVS5ApbDeEewKmFWEoW++lBsV8OF/GEKEIr6PVzia9biD5VJGCGvfG2vpShavMnF9U8Xs7YeLZyqwqcrHVzz1LGQqXjnIS/vL45v2/fSl3ZWJFnoi4ZSuxr+oR31QEgSyknTN7sXZf4RH396r5wnr8tMeGCmqsLr39b2IkpLVahwqNz8XDFd8vSc3tNEmywdbq+koNjP8m2uqPl9n/n0OIO7G2PybVi4oXmEvmjITFPCCc7UAyVU5wEY0M3QImK1569z0ruDgavPTqzBRVFg0kgzH1Vn5rhinIXfX2jDaBBsyPdw35u1FTpCwNQzLEwaaUGnwAtfVNTSMsaC/CM+HnmneYS+aMjNUMKdHA/rHnnkkVFUZwLNsCrWOQsrpc9PszPCj7vc9O9irDe7V2Mx8rQU8jJ0TBxu5opxVnTV6tu8LB1pZoUlm2s6+LwhqfxxWgZZaQoZVoXxA1OpdKoUlqrcMyWdkac2XPDc7lS59fkSipNYPKIh9Otk3Dl5lCU8zuN9BfgkeCQg655LM35MPml1oaoBt+6guTdRUESgEMS4/nU7r3Pr2swWmb9QETBjcjrfPt6aC05v2BlElTBrdlmzC33heOy6jPKIprkKgWLEO4MtE4enDO3e3pBPC8DxKpWZr5XGJKUnApaU2lu7VlF8DGPFi/MqWLEtOXEFseDyMZZV7bL14cWk3hVC7FGEEH7gRgLFhhBCWObMyBFpqUrSysI0hJ2HvPz5vUjG1Qad8/TccI6Vwd2MTBppZkgjM5gu3ODizfmx5yXSGj3aG/bNnJIeXoD6KHAXhIXQSynvAJ4LHhcfV9ee/1DhgOauCxjEnZNsXHVWYoVCLbC/yMc1Tx0LeRI3Nywpwj7/ibxjJoMIqvh9wAQhxGII8wgSQvwf8HrwOCddGfy3GzLrzS+XbDz3WQU/tKApNRoqHCrTq5VFLQGKQP1oVu6OsM4HuDPY+VA3LuB2ICQEjuufesa0cdaVtACoKsx6q4yC4mZXVUSFKuHBOeX1ZiptDjx9c/bS1hm6oWFNbwsh/hl+TS0GEEK4gIuBYAVqcfckW79TOxjCAwybDRUOlRmvlYYigFsSXviiokVo+oKYPCp19Zg+oWqiAOuAWyKvqyPmCiGOAJcScBtCCCxv3d0qNTNNlGpFbDzYVeDlsSQJhbHi+42ukPNpS0CPdvq991+eeRo1Ml4RcJEQoo4LVtR9jhBiJTA9eKxTaP/Bfa33KwotYv79Zq0zruyfWmJfoY+HW5CmL92sK58zM1cnREjF7wUuE0JEtfTWu9EVQrwEvBI8zrYpg565KWt5QqltAlqCUFjhULnzlZYl9H3wQM4eg47wQJDfCyGW1ndPg+aW6oIRC4ExwaZnPqlY+c73lfUmHkwm0i1Ks1QbCeLAUV/CfRqbgn/+LmvJiFNTwtf92UKI6xu654T2turCQ2uA9tVNzhufLd6/Pt8TU2HC/yE5mHqGddnMS22jqenTlcA4IUSD0+QJdZ1CiEJgCtVCIZD68h3Ztqw0JWnew/9Dw+jTybhr5qW2QdR0fiEw5USdDzEWjhRCrAJuDh7rFNHuwwdyD+gUWs6m9xeKdItS9tr07FQgGKbkJdD5MeV3iNnaIYSYA7wQPM60KoP+eWvWiniIPVmx6C95zHtU+1xB8UKn4Pv3g7kHDDoRnsv5d0KImIX1eM1ddwKLgwen90o54+bz01qMuviXhpdub7Ui06oMCGv6pxDitXieERcDCCG8BJRE+4Jtt/wqbeiQ7sZt8Tznf2g6rptgXTGouyFc4v8BuDve58Rt8BZClACTgaBnZcqLt+dkZNuU4nif9T80Dv06G3f8fqJtYFjTQWCSECLuQIdG+VsJIdZLKW8B3gZQFNr+e1bu5gmzimxen0xospue7Q28d28r5q128K8v7dxxkY0RvUykGgW7D/t4+av6HS/OG5LKZWMsdG9nQK/AwWI/X//k4N1FVXVSyigCpp5pYfIoC22zdZRVqixc7+LFLysapK9fZyNXn21lQBcjNrOgvEplzS4Pr31jZ39R4mXkHJty7PXpOTZq6jm6gMlCiKMN3FYvmuR3K6V8hjCV8fo97qU3PlcytinPjESQAdbsctO1jYGj5X627PeQZdNxZr+AW9dNzxWzIb828wf9B0oqVOavd+LySMb0SaFrGz3r8z3c+nwJXn8NE8yamsElo8wUlPhZsN6JlDB+YAolFSpd2uipdEoueLio1jsmjTTzwNQMyuwqS7e4KLX7aZet56wBKfhVuPX5klpp55oKvU7xfvt47rYMixJev/E3Qog36r3pRM9sIk0zCDiUngswsJtp7K0XpC17cZ59TMO3xY+hPUy89o2dl76qKf124TAzj1yVwdVnWdmQX2OrGtTNyFVnWTlU7OOap4o5XhVwyvzXvAqeuSWbUaeZuGa8lde/DbhqD+5u4pJRZnYVeLnh6eKQtfHVb+y8Pj2HtFSFSmdtM0jnPD33XZbOym0uZrxWVmtG6fqdntl3t+LBaelc/uSxhP0Gr/4hc2WGRQkfYM80pfOhETJAOKrdya4AQuFGN56bNnzUaSmbmvLcaDhS6uflsLp/AF/+6MDhlnVSz180PDA7vvpNZajzIZBQ4pn/HEdKuGhEjVPnxGGBgMmXv7LXMjW7PJJ/fRndn3/KGAt6nWDOwirSzIJsmxL6F1gG3HRra2hScclw3HBO2op+nU3hnb8IuKepz22yz7UQolRKeQmwgoAywvDsb7PyLnykqLCw1H/C+vWxYuchb50kD6qEY8f9dSqPBIM11u6uKxvsK/RRXOGnXbaOtFQFu1MNXR8tR8/6PdHli2C9o5fvaDiZao5NF3fugEic3jNly20Xpg0JazoATBVCNFnISIjTvRBio5TyGuBjQCiC3Ln3ttpy7qyizESlm49W0xfA56+bsCFYEiZaRA9AcYVKq3Qd1lSB3Rm43q8SNZO4wy2jOqAEk07c/WppgzkKmyoItsrQHX3hd1nZBLJ6ADgJCH0JWVsSFnUhhPhESvkUMBMgzaz0mT0jZ/m0vxwbfYJbE44As+jItilRR19Otbt3pVOGrm+TpcNmVuowgdkkSDUKIl1Qgu8oLPPXSkOXSOh1iveD+1oVKgr9wpp/I4RYm6h3JDpp/33A18GDHu0Mo++YaKvXFq0VdlZnBB/cve7k0zFXT45NR6svp0IAAAQaSURBVEGJH3v1rBK8flC3ujvYQd2iT2BB6T48X3Gi8cb07FXpFiW88/8uhHg/ke9IKANU16e9EtgTbLt2gnXE2D4pGxP5nhPhs+ro35vOs9bKD6RT4K5LbAgBn62siRD+YnXAU+qWX6WRaqzZGacYRb1ZRD5YUoVfDcQORvNJMJsEEwY1njnuuNi2tHcnQ/huagHwQKMfWA8SG3gHCCHKpJQTgVUQqGH/j5uz2k58+OiRI2W+Nol+XzSs2+PhnUWVXHWWlY9n5bJgvRO3VzKqdwpd8gJ6gDlhPnw/7Xbznx8cTBpp5sNZuSzaENADnNU/laPHa2aKcOQf8fH4++XMmpbBi7dns2qHm52HvOgU6NRaz9AeJn4+5mP+uvgzoQ3vadp87dnW8Cie/cC0RAh9kUg4AwAIIbZLKa8lEHcoFEGrj2a12nH2/YUZ7iSkoAN45j+BFLFTxlq4YJgZvQ4OHvPzwhcVvPN9VS0lEMATc8vZV+hj8mgzl59hocyusqBaE1ifJfCzVQ52HPJy5TgrQ7obGdojUKji2HGVeasdfNuIzm+dri96/ndZudQIfZXARCGEJqp2TUtiSSkfA2YFj/MP+1Zc9uTRBuvZ/5JhNArXgify8i0mESzbKwls9z7U6p3aFK6twUPAvOBB17b6UTMuSb5QeLLgjemt1oR1PsCTWnY+aMwA1ULhFUDIXDxtnHXkuH4pG+q/65eJGZNtS049RR8u9H1HYABpCq1nAIQQduASIBhtrP/7TVkdOuTqDmr97pMFI05L2TTtTOuIsKbdwOXVqnZNoTkDAAghdgLXACoEElG8f2+uI8UoNEtLf7KgXbbu8P/9NqstEFRCVBKw7Scl/CkpDAAghPgc+HPwOMUoer49o9UveikwGoXr/ftzyxURqs4ugeuFEFuTRUPSGKAajxKwFwDQpY1+5P2Xpy9JMg0tBrPvyvnJYhKnhTX9SQjxcb03aICkMkB1wcLrgRCHXzraMvr8oeafkklHS8ADUzMX92xnCLeTfA78Kdl0JHsGQAhRSUAoDK5xuj9fk9GlU67+52TT0lwYPyh13eRRqeGdvwO4unrXlFQknQEAhBC7gMupTlwsIOujWbn6XwITjO2TsvEv12X2pEYLaydg3m3Y+VAjaKoJPBGklA8Aj4eOofTVr+3bXvnaPkqrqmXNBZNBOJ+4PnP1mX1TRlIj8asE4vbnNXCrpmhuBhDABwRiD0Pwq/Lw2l2e3Wt2e/SHSnwpqnpyMkOKUfg75+pcI3qniB5tDX2FILJI0h+FEI81C3HVaPYfVkppBD4CJjY3LUnGP4QQM5qbiGaRAcJRHcxwGfAE1bkK/8tRCtzUEjofWsAMEA4pZTcCGsNfA52BzIbvOCkgCYRr7yJgHn9PK9NuY/D/eWutrXjnXkEAAAAASUVORK5CYII=;fontSize=16;" parent="1" vertex="1">
          <mxGeometry x="360" y="59" width="73.29" height="71" as="geometry" />
        </mxCell>
        <mxCell id="z8v7z7G2F0ZjTP9mHvDK-4" value="" style="shape=image;verticalLabelPosition=bottom;labelBackgroundColor=default;verticalAlign=top;aspect=fixed;imageAspect=0;image=data:image/png,iVBORw0KGgoAAAANSUhEUgAAAIAAAAB8CAYAAAChbripAAAABmJLR0QA/wD/AP+gvaeTAAAgAElEQVR4nO2dd3hUVfrHP+dOS2Ymk0oIRXpTepOOomDZVRQRBbuuZV1dFxVsuJZdyxbX8nNduyI2LOtasFKkCoj0XkIRAgmkkUmmzz2/PyYzmUwmYSaZOwnrfp8Hntxz23vnvOec97wVfkGQUgop5dlSyjellDuklA4pZZGUcpOU8kkpZb/mpvF/0ABSSkVKeaGUco08MZZLKS9sbpr/hwRASmmQUl4jpdweQ8dHYq2UcoqUUjT3d2iJ/8qPk1KagRuBGcApEaddh4751i/b6vLtPeI32cyK95RWiu/sAalZaWalN6BEXL8ReBL4SAihak99cvFfxQBSynTgNuAPQG6tc1A6f51z818/rOhfXuXPiHZ/x9a6g49elbW/byfD6YAp4vQu4K/AO0IIjwbkNwv+KxhASpkD3A7cAWSGn1MlxQs3OLc+9v7xgZVO1RbL87JtSvHMS9O3jh+QOlAIIu8pBJ4FnhdCOBJBf3PipGYAKWVr4E7g94A5/Jxf5dDHyyr3PveZfajbK1Mb8/x0i2K/Z0r6pnMHp54mIhgLKAZeAJ4TQpQ15vktASclA0gpOwPTgZuBlPBzHj8/z5lvP/zK1/YhfhV9It5nMYmq2y5MWztljLWHopAXcdoOvAn8RQhxJBHvSyZOKgaQUvYFZgLToHbnujxy5+vzK4tnf2cfrqrotHi/QS88V4+3rrn5vLR2Bh2dIk67gbeAx4QQB7V4vxY4KRhASjkQuB+4lAia7Q5189P/qXB9sdoxRMrkfI8iUC8ba119x0VpuSaD6Bpx2gN8ADwuhNiZDHqaghbNAFLK0cC9wAWR58qr1K1/fq+cxZtcvZNPWQCKQL1gmHntjEvTzRaTiKRDBb4CHhFCrG0G8mJCi2OAasXLBcADwPCI02phuX/tQ2+VWdfu8ZyafOrqx8hTUzbPuiLdlZehGxrl9ALgISHEymTTdSK0GAaQUirAr4FHgEERp735R3w/znqrrM3uAm+XpBMXB0acatr84BUZrrwM3RDq/r4rgL8KIb5oBtKiotkZQEppBKYCs4AeEafduwp86+97s7TjgSJfm+RT13j06WTc9dAVGce6ttEPhzpC6QbgGQJKpWbVLjYbA0gpLdSoa9vXPkfV2j3utX+cU97raLk/N+oDThJ0yNUdnDU1Y9+Q7qZh1NUubgH+DrwnhPAln7pmYAAppQ24HrgPau+pVSlLF25wbX5ybkX/447o6tqTFe2ydYcfujJjz5DupiFEKK2A/QS0iy8LIVzJpCtpDCClbEWNnr5W56qSY9+tc+56Ym75wCqXjPxx/quQlaaU3DMlfcv4AakDhCA94nQR8BLwtBCiIhn0aM4AUsqOwF0EpvtIde3Bj5dV7nv2c/vpHo9MifqA/1JYTKLytgvT1k0Za+2lCCKXuaCa+f+EEKVa0qEZA0gpuxIwztxCxNrn9sg9r82vLHrrO/uwRKlrT1aYTUrV7Rda104ZY+2uKEQKupXAGwR2Doe1eH/CGaDarWoGcAUR0q/LI3e8+nVlxZyF9qFqkrR2JwuCauabzrO2NepE54jTbuBD4E9CiD2JfG/COkFKOYqAYPfryOcG1bWfr3JEU5I0G7q3M1BQ7MPhls1NSghB7eLMS9OtZpOIVHZ5gbnAk0KI7Yl4X5MZoCF17bHjvo0Pv31cv3qnu9nUtZEw6gW/GprKtDMtdGtroMKh8skKB3OXVHHsuL+5yQtBCOSFw8w/3TXJlppmVvpEnA6qmf8khFjTpPc09kYp5WnAi8DYiFP+g8W+FbNml+dsPeA5rSnEJRJpqQqXjjEz7Qwr2bZIry/w+iXfrnXy9sIq9hz2NgOF9WNc/9Qt912eruakKZFeyxJ4F7hbCHG0Mc9uFANIKScSWJPChTvPjkPelQ/OLuuwr8gXuYY1GzKsCpePtTDtTAtpqXU7PhpW73Tz8pd2Nu5rWZ5fg7sbdz00LaOqfSv9AGr3XSFwthBiW7zPjJsBpJRjgfmAMdhWUOJf9dvnSzocLvG1jfd5WiErTeHKcVamnmEhxdi4iW7jXg+z51eybKsL2XLEBPp3Me54/nfZ/ggL5FFgYLy7hbh+GSllKgEv2e7BpjkLq5Y99+nxyGWg2dA2S8eVZ1m5ZKQZoyExMu6uAi/vLqriq58cqC3EL1gRqG/clb2ibyfTmLDmT4QQk+N5TrwMcB0B9ycAPl/pXPLoe2VnxPMMrdA+R8+1461cNMKMLraZPm4cKvYxd0kV/17hwONt/ilBCOQnD+au6pCrHxHW3EcIsTXmZ8TzQinlN8C5AFVuufXMe4700sr9KlZ0a2vgpvOsnDUgFSXOAV9U7ueHbW5K7H5GnprCqacYEDE8o7DMz5wFlXy60oG7mRkhK00p+e6JPCEgq7rpCSHErFjvj/knqzbblgOpAH/7qGLlB0srRzR8l3bo2kbPtePTOH9IKkqMI15VYWeBl2VbXCzd7GLHIW+ttT3DqjCku4mxfVIY08eEzdzwg8sqVT5aVsW731dR6Wy+teGF27KXDO9lCs7EPwohhsV6bzwMMBwIerQ4Rt51RDTW3bop6NbWwE3nWzmrf3wj3ueXfLTMwdc/Odj+sxe1gYHbOlPH2D4p3HCOldyME09wx6tU3vu+ig+WVmFvBkYY1NW0/dXp2UGlkRfIiDVmIR4GmEHAdk1Zpbp+/P2FA+OmtAnokqfnugnxjfhwrN7p5vnPKhjbN4W+nYxUOlWWb3WzdIuLSpdKz3aGOucyrAp3TooplgQAh1vy+SoHb3xnp6QieYygCNQfn2tbGRbEcqYQYkks98ZjiBkZ/GNDvud4PAQ2BV3b6LnpvDTOHhj/Gh8OKWH7QS/bDwaUPHmZOkb3SeFvv8kkK03H4k1Olm5x8+rX9tDscPHI+CzTZpNg6hkWLhph5t/Lq3h7YRXFFdprF1WJUlKh7s5JVwZXN40CEs4AofV+4QZnWhz3NQodc/Xc8qs0JgxqWsfXh8IyPx8vq2LvES8TBqbyr3n2hD071Si46iwrU8ZY+Hh5FbPnV1Jq13ZGWJfvqTxnUMiiPirW+2JiACllN2q8d9Tl293dG7q+KcjN0HHteCuTR5sx6LQ3GIpYxP5GwmQQXDnOyuRRFj5dqe3SMH+dMz2MAUZKKZVY/A1jXU1DHOX2yHx7VWxBlvHiynFWPvljLlPPsCSl84PQYoYJR4oxsDR8+lBrTmmljfvDqh3u7kDQrzADiMltPm4G2HXYp0n8W1ZaQOBKbaTatrHQuvPDYTYJRpwa6ReaGDjcqsXpluG+AjEtA7EyQEgAXLzJqYni5/SeppiUMI2FoSGq63mvXoNZaFhPbRgAYPtBT7hFMDEMIKWsNZ0s2ujsED9pJ8aIXtr9MACDu5v41+3Z9GxvqNUuBHUYz2wS3PKrNO6OYwsYOx3GRm1jY8H3m9zhH5ewGWBk8DpVcvTno/7IlCsJwVANR0YQw3qaeOeeVvz1hkzaZAWmBAGI6ilArxNcMsrMZw+35ubz0xJmTApHWqrCaR2MJ76wEVi0wRkeNdVVShkZyl4HsUgkIU4qKPbthToerE1G5zw9rWPQuCUCioDxA1MZ3TuFuUuq2PZzwOY/tk8Kd15io4NGQlo4hnQ3smV/4n0NCsv8rf2qPKxTRNAsPwL4T0P3xMUAq3e43U2gr14M7aH96I9EilFw3QQrHl9A63PJqOSFIwzoos0MAHDwmH9/p9b6IAOMoikMIKU0ACFHzvkb3DlNpjAK+nVO/A9SWOZn+VYXPj+M7m2ifU70TzXq607zqoRtBzz8uMtDh1wdI3qlYElJ3HLQv4sRRdCgPaKxWLHN7evUOvStJ5QDTjQDDKQmmMO5ca82CqD+CRgRDVn6/v4xtMvRMaxnwNI3rJepTsdXOFR+3Olm9U43Sze7a6lwFYWQrWBMnxR6tY/NbFwfbGaFznl68o8kPhxw/jpn3pXjLMHDwVJKc0OGoRMxQGj7V16l7vL6ZP8E0FgLOTYdbbOatv473JI5Cyv55icnB49F/1ELiv18Uuxg5XY3Ewamcv051pC5d2+hj9e+sbNimzuqWVdVA3aEnQVeVm53M2WMhfOGNE1FPbCbSRMG2Pqzp5uUVFQbhgzAYGBZfdefiAFCU8jGfV5NMmH172I48UUnwMINTjbt9XDxCDM92hkoLPOzbIuLVTvd+PwyNHr7dDRSWuln2RY3X//k5PKxgZHy0pcVpBoVHrg8nWybwro9ntAskpaqcHpPE8N6mmifo2Pbz17+vaKKgV2NoZ1Eo767s5GPl1U1+dsjoaoopXZ1T7ZNCeZYGEUTGCDMAOSyNHRhY5GI9d/tlayunr4hEPAxureJG861ogjBsq2BZeGVr+2hZSFcH1BeqbJwj4t5PzowGgSDuxmZONzM471M7C/ysXSLi5e/stdaFpq6fg/sqp0guC7fbZ8wMOSq0aAcUC8DVKdiaxc8XL7F2S0x5NWGFgLg7gIvuwu8lFSo2MwK7yyqjPlej1eycrubldvdvHBbNk/MPa6JSbdNlo7WmTqKyhL/7AXrXbZwBmjIMNSQIqjGAOSV+cer1MhEiU2GUS/odUrTlwCtIKirJUwkBmq0Hfxhq6snNYahTKBnfdc2xAAhATD/iDYGoFNPMUTdhiUKTe7AKGriRCIRu59ocHik2emW+WFN9S4DMc0Aize7NPkZ+iZo+q+vk4SI0eetgV7W0liopRyw46CnKOxwZH3XRWWA6jQuoaiTRRucmuj/E7X+6+rbjzUwgsNjB/T1DAMR+i+iXZCQ2IOubQ1YYwxXixeLN7nD5bu4Z4ARVMf2q5LifYW+jgmkLYQ+nRKz/l803Mxfb8iso0+I1vfpFoXfT7RxRY2yhL/ckMl1E6x1lqNoVrveHY28+occ8jKbbrtQBPRN0G8Qie83u8INQ92llFFtOPXtAkIcc6TUlw8kXAWcbVMSZgAS1QaeMX1SeH9xFW/Or6TSqdYy9ZoMgmlnWrh+grXOqLOZA0wxZYyFF+fZ+XKNAymDlsIA8jJ1/O4CG78amppQuaB/ZyMrtyfexFJQ7MtTVQ4rCm0JfMYI4LPI607IAD/u8DoTTh3Qp2Pi1z+TIWDgmTTSzJyFlbg8MsQcf7jYdkKNY16mjkevzuCysWae+U8gR1O6RWHKGAtXjLNoIrD209IwVOw70DG3lmHoxAwgpdQBpweP5693aGIAOq2DNlNfeaXK/iIfN5yThr66v01x2vWD07zXJ3nzrpy4748HfTsFHES0CDr9Yavb2zG3YcNQNBmgP2Ct/tu9Id+jiQFIC6eI8kqVCx4u4jfPFjPz9VJMBtHozhMCjE24P1aYTYLubbUZDPM3OFuHHQ6Wsm4mtmgMEOIUu0PudPtkwo31QkDvjon/6D1HvDg9AR3tmp1uispbTsqXhqCVPmDzfk83KQmqQU0EDEO10CADbNzr1sQA1DZbR7ol8dufb9fWiCuqhPvfLGNfoQ9Vwsrtbl6cZ6fC0fBcW1zh528fHefRd8tZtUMT/5c66K+BOhxAVdGVVqm7w5rqLAPRhMCQ0mDhRpcmwZ+9EzD9e3ySf82zY00VtM/W8/0mFwvW15ZXN+71cOnjtVPn5Bd6eerGLOrD3CWBIE+AH7a5+fbx1vVemyhoKQiu3+OuGD+gfsNQLQaQUnagps6eXL7VFVkNIyFIxPT/7+UO3l5Y28iTlaZw669tDOxqxOGWfLXGwYdLq2pZ7nYdajgB1LHymhmi0pWcAM+2WTpapes0yVK2YL0rLYwBRkophRAi9ItEzsMhDvH45b5Su5qdcIpIjAD4c4TjR7ZNYe59uVwyykznPD29OxqYeWk6T1xXY8MymwR//U0WcxZWctXfjtXZf6sqbA5z1nR5ZJ1QLilh0UYXuwoSm0lMq2Xgh62uHkCQs3KISMkfyQA1BqDDvgItCBKCOr75jcH0i22cP6RmhfrDRelR079NGBRQEAFMGmlhd4GX5z6tYPtBL3e+XMqnPzjw+iWFZX4efqeMA0drM9YTH5RT5QoMGIdb8sDsMma+Vsq1TxWH/A8SgX4JcIyJhiq3tLo89RuGImWA0MllW7QxALXN1iXEwdJkEPzp6kw27/dyqNjH0B71j6ChPYws2+LCnCJqjWivX/Ln98t5/INyVDWg9Dl7QAqt0nX4VDh41McP29yc/8dCerY3sL/IF4ry9fgkby2oTFikj5aewrsKPIX9OpuCI38kgfzDQBgDSCmtQN/g8cL1znZogETueRUFurXVc6jYF3LvjgZP9Wy9eJOL16fn8MN2F+v21Ez1rTN03H6hjXMG1U0+UeWSvPd9JbMXBDSLoXeLxLqS92hvwGQQmuQc+n6jW9+vc4hRa80A4Z87nGqGkFCSX+jrlHBKCGT6SBQ8Psnu6rX4u3XR6yyoKizYENgd7C7w8tvni5l+sS3k0Dmgq5F372kVcPKMsjO1pAhuOj+N16fnkGOrUSVPn2QjTLhqMgw6oYluBGDRRle4Ma9nde0GoDYDhDijqNSXr1UNvkTt/1UJf3yrnIKSgHzz6jf2WqM6eM0/v6hgx8EagW3bz4EsIZYUhY65ep69JSsmmnqdYuCZW7IwGgRmk2DaGdYT3hPv92iFQ8W+dqpK0KlHEFaNLfzLQwLgml1ezYoiv/t9VUKyZRSV+UMjGwK+fLc8X8yj75Yzb3Ug+fMNTxfz1oLAVjE4us0mQVaaDrtT5d4p6TGnj4WA/eKKMy14feBLcI+9/GVdBk4kDhX79ocdhgZ7YMoPlGwLpRb7dr2zfk1JE3G03M+9b5Ty4u3ZTQq/bpOl49zBqXy71knnPD19OxlZs8vN56scfL6qhn875up57NpMerU3sHGfh0PFPv75eQXd2xkY1oiI5CvHWZmzsJJPVjiYekZiHKW/3+ji9e8Sl6ImGn7Y4fZ0iGIYEgBSyv4ESpkBuEfcdUT1aJwCbtqZFmZMjiyZEx/8Kvx81EfnarnC45PMml3Goo018sC797Ri1Q43L8yrqGVxu26Cld9PbFz497X/KGbbAQ/nDUnl1FOM5GYqnNk3pVEMvbfQx7VPHdO8ZsHArsbtr03PCYb5u4F0IYQ7OP+FGYDU3Vp3PsD7i6v45qemuRroFEKdDwEv4xvPS6t13KOdge/WOeuYW9tmN94ZpX22DlXCV2uc/OOT49z7ehlzl8Qf5GF3qtz9SmlSClZs2ufpLiVBIk1UF+eswwBbDnhKNKemGn9+vzwkxScKPdsbOKt/Ch1a6bnyLAuKEl3w1DXBrSfabuFIaXxqXFXCg2+V19FoagW/ir68St0V1jQKavQAIQZYtMmdtFhtl0cy47Uy3p6Zc8K0rPHg7xHGngenZvDNWgclFSqrd7rZX+TjSBMCMiI7WxGBFDfx4KUv7SzfmtQSgWzY664Y16+WYegpvZSyLRDaJy7bUsuZUHMcKvbx4Jxynr0lS7OETe1ydPzm3MDS4PVLbnuhlFU73Nz66/jTHVY6Vbbs99K/i5HbLrSRlxHQbGZYY2fgRRtdvKGx0BcNC9e7rGEMMFpKKRRgdLDF62f/sWYo1bpiayD2Lhkw6ATXT7Cy9YCnUVk6Pl7uwGQUPH1TFoO7GWmXo4ur8/OP+Hj47bJmKUCxdEsdw1A3hbAA0J+LfIeST1YAb3xrZ+mW5EyJGVYFKeEvHx6PS/V64KiPN76zM7ibMa5OD8LuVJnxanKEvmiocsk0t0fuDWsaWWv/v6PA2ywFjKFaszcnOULRh9UOH9sPenlgdlktHX99KCjxc+fLpVS5ApbDeEewKmFWEoW++lBsV8OF/GEKEIr6PVzia9biD5VJGCGvfG2vpShavMnF9U8Xs7YeLZyqwqcrHVzz1LGQqXjnIS/vL45v2/fSl3ZWJFnoi4ZSuxr+oR31QEgSyknTN7sXZf4RH396r5wnr8tMeGCmqsLr39b2IkpLVahwqNz8XDFd8vSc3tNEmywdbq+koNjP8m2uqPl9n/n0OIO7G2PybVi4oXmEvmjITFPCCc7UAyVU5wEY0M3QImK1569z0ruDgavPTqzBRVFg0kgzH1Vn5rhinIXfX2jDaBBsyPdw35u1FTpCwNQzLEwaaUGnwAtfVNTSMsaC/CM+HnmneYS+aMjNUMKdHA/rHnnkkVFUZwLNsCrWOQsrpc9PszPCj7vc9O9irDe7V2Mx8rQU8jJ0TBxu5opxVnTV6tu8LB1pZoUlm2s6+LwhqfxxWgZZaQoZVoXxA1OpdKoUlqrcMyWdkac2XPDc7lS59fkSipNYPKIh9Otk3Dl5lCU8zuN9BfgkeCQg655LM35MPml1oaoBt+6guTdRUESgEMS4/nU7r3Pr2swWmb9QETBjcjrfPt6aC05v2BlElTBrdlmzC33heOy6jPKIprkKgWLEO4MtE4enDO3e3pBPC8DxKpWZr5XGJKUnApaU2lu7VlF8DGPFi/MqWLEtOXEFseDyMZZV7bL14cWk3hVC7FGEEH7gRgLFhhBCWObMyBFpqUrSysI0hJ2HvPz5vUjG1Qad8/TccI6Vwd2MTBppZkgjM5gu3ODizfmx5yXSGj3aG/bNnJIeXoD6KHAXhIXQSynvAJ4LHhcfV9ee/1DhgOauCxjEnZNsXHVWYoVCLbC/yMc1Tx0LeRI3Nywpwj7/ibxjJoMIqvh9wAQhxGII8wgSQvwf8HrwOCddGfy3GzLrzS+XbDz3WQU/tKApNRoqHCrTq5VFLQGKQP1oVu6OsM4HuDPY+VA3LuB2ICQEjuufesa0cdaVtACoKsx6q4yC4mZXVUSFKuHBOeX1ZiptDjx9c/bS1hm6oWFNbwsh/hl+TS0GEEK4gIuBYAVqcfckW79TOxjCAwybDRUOlRmvlYYigFsSXviiokVo+oKYPCp19Zg+oWqiAOuAWyKvqyPmCiGOAJcScBtCCCxv3d0qNTNNlGpFbDzYVeDlsSQJhbHi+42ukPNpS0CPdvq991+eeRo1Ml4RcJEQoo4LVtR9jhBiJTA9eKxTaP/Bfa33KwotYv79Zq0zruyfWmJfoY+HW5CmL92sK58zM1cnREjF7wUuE0JEtfTWu9EVQrwEvBI8zrYpg565KWt5QqltAlqCUFjhULnzlZYl9H3wQM4eg47wQJDfCyGW1ndPg+aW6oIRC4ExwaZnPqlY+c73lfUmHkwm0i1Ks1QbCeLAUV/CfRqbgn/+LmvJiFNTwtf92UKI6xu654T2turCQ2uA9tVNzhufLd6/Pt8TU2HC/yE5mHqGddnMS22jqenTlcA4IUSD0+QJdZ1CiEJgCtVCIZD68h3Ztqw0JWnew/9Dw+jTybhr5qW2QdR0fiEw5USdDzEWjhRCrAJuDh7rFNHuwwdyD+gUWs6m9xeKdItS9tr07FQgGKbkJdD5MeV3iNnaIYSYA7wQPM60KoP+eWvWiniIPVmx6C95zHtU+1xB8UKn4Pv3g7kHDDoRnsv5d0KImIX1eM1ddwKLgwen90o54+bz01qMuviXhpdub7Ui06oMCGv6pxDitXieERcDCCG8BJRE+4Jtt/wqbeiQ7sZt8Tznf2g6rptgXTGouyFc4v8BuDve58Rt8BZClACTgaBnZcqLt+dkZNuU4nif9T80Dv06G3f8fqJtYFjTQWCSECLuQIdG+VsJIdZLKW8B3gZQFNr+e1bu5gmzimxen0xospue7Q28d28r5q128K8v7dxxkY0RvUykGgW7D/t4+av6HS/OG5LKZWMsdG9nQK/AwWI/X//k4N1FVXVSyigCpp5pYfIoC22zdZRVqixc7+LFLysapK9fZyNXn21lQBcjNrOgvEplzS4Pr31jZ39R4mXkHJty7PXpOTZq6jm6gMlCiKMN3FYvmuR3K6V8hjCV8fo97qU3PlcytinPjESQAdbsctO1jYGj5X627PeQZdNxZr+AW9dNzxWzIb828wf9B0oqVOavd+LySMb0SaFrGz3r8z3c+nwJXn8NE8yamsElo8wUlPhZsN6JlDB+YAolFSpd2uipdEoueLio1jsmjTTzwNQMyuwqS7e4KLX7aZet56wBKfhVuPX5klpp55oKvU7xfvt47rYMixJev/E3Qog36r3pRM9sIk0zCDiUngswsJtp7K0XpC17cZ59TMO3xY+hPUy89o2dl76qKf124TAzj1yVwdVnWdmQX2OrGtTNyFVnWTlU7OOap4o5XhVwyvzXvAqeuSWbUaeZuGa8lde/DbhqD+5u4pJRZnYVeLnh6eKQtfHVb+y8Pj2HtFSFSmdtM0jnPD33XZbOym0uZrxWVmtG6fqdntl3t+LBaelc/uSxhP0Gr/4hc2WGRQkfYM80pfOhETJAOKrdya4AQuFGN56bNnzUaSmbmvLcaDhS6uflsLp/AF/+6MDhlnVSz180PDA7vvpNZajzIZBQ4pn/HEdKuGhEjVPnxGGBgMmXv7LXMjW7PJJ/fRndn3/KGAt6nWDOwirSzIJsmxL6F1gG3HRra2hScclw3HBO2op+nU3hnb8IuKepz22yz7UQolRKeQmwgoAywvDsb7PyLnykqLCw1H/C+vWxYuchb50kD6qEY8f9dSqPBIM11u6uKxvsK/RRXOGnXbaOtFQFu1MNXR8tR8/6PdHli2C9o5fvaDiZao5NF3fugEic3jNly20Xpg0JazoATBVCNFnISIjTvRBio5TyGuBjQCiC3Ln3ttpy7qyizESlm49W0xfA56+bsCFYEiZaRA9AcYVKq3Qd1lSB3Rm43q8SNZO4wy2jOqAEk07c/WppgzkKmyoItsrQHX3hd1nZBLJ6ADgJCH0JWVsSFnUhhPhESvkUMBMgzaz0mT0jZ/m0vxwbfYJbE44As+jItilRR19Otbt3pVOGrm+TpcNmVuowgdkkSDUKIl1Qgu8oLPPXSkOXSOh1iveD+1oVKgr9wpp/I4RYm6h3JDpp/33A18GDHu0Mo++YaKvXFq0VdlZnBB/cve7k0zFXT45NR6svp0IAAAQaSURBVEGJH3v1rBK8flC3ujvYQd2iT2BB6T48X3Gi8cb07FXpFiW88/8uhHg/ke9IKANU16e9EtgTbLt2gnXE2D4pGxP5nhPhs+ro35vOs9bKD6RT4K5LbAgBn62siRD+YnXAU+qWX6WRaqzZGacYRb1ZRD5YUoVfDcQORvNJMJsEEwY1njnuuNi2tHcnQ/huagHwQKMfWA8SG3gHCCHKpJQTgVUQqGH/j5uz2k58+OiRI2W+Nol+XzSs2+PhnUWVXHWWlY9n5bJgvRO3VzKqdwpd8gJ6gDlhPnw/7Xbznx8cTBpp5sNZuSzaENADnNU/laPHa2aKcOQf8fH4++XMmpbBi7dns2qHm52HvOgU6NRaz9AeJn4+5mP+uvgzoQ3vadp87dnW8Cie/cC0RAh9kUg4AwAIIbZLKa8lEHcoFEGrj2a12nH2/YUZ7iSkoAN45j+BFLFTxlq4YJgZvQ4OHvPzwhcVvPN9VS0lEMATc8vZV+hj8mgzl59hocyusqBaE1ifJfCzVQ52HPJy5TgrQ7obGdojUKji2HGVeasdfNuIzm+dri96/ndZudQIfZXARCGEJqp2TUtiSSkfA2YFj/MP+1Zc9uTRBuvZ/5JhNArXgify8i0mESzbKwls9z7U6p3aFK6twUPAvOBB17b6UTMuSb5QeLLgjemt1oR1PsCTWnY+aMwA1ULhFUDIXDxtnHXkuH4pG+q/65eJGZNtS049RR8u9H1HYABpCq1nAIQQduASIBhtrP/7TVkdOuTqDmr97pMFI05L2TTtTOuIsKbdwOXVqnZNoTkDAAghdgLXACoEElG8f2+uI8UoNEtLf7KgXbbu8P/9NqstEFRCVBKw7Scl/CkpDAAghPgc+HPwOMUoer49o9UveikwGoXr/ftzyxURqs4ugeuFEFuTRUPSGKAajxKwFwDQpY1+5P2Xpy9JMg0tBrPvyvnJYhKnhTX9SQjxcb03aICkMkB1wcLrgRCHXzraMvr8oeafkklHS8ADUzMX92xnCLeTfA78Kdl0JHsGQAhRSUAoDK5xuj9fk9GlU67+52TT0lwYPyh13eRRqeGdvwO4unrXlFQknQEAhBC7gMupTlwsIOujWbn6XwITjO2TsvEv12X2pEYLaydg3m3Y+VAjaKoJPBGklA8Aj4eOofTVr+3bXvnaPkqrqmXNBZNBOJ+4PnP1mX1TRlIj8asE4vbnNXCrpmhuBhDABwRiD0Pwq/Lw2l2e3Wt2e/SHSnwpqnpyMkOKUfg75+pcI3qniB5tDX2FILJI0h+FEI81C3HVaPYfVkppBD4CJjY3LUnGP4QQM5qbiGaRAcJRHcxwGfAE1bkK/8tRCtzUEjofWsAMEA4pZTcCGsNfA52BzIbvOCkgCYRr7yJgHn9PK9NuY/D/eWutrXjnXkEAAAAASUVORK5CYII=;fontSize=16;" parent="1" vertex="1">
          <mxGeometry x="560" y="59" width="72.26" height="70" as="geometry" />
        </mxCell>
        <mxCell id="z8v7z7G2F0ZjTP9mHvDK-8" value="K8s-worker-1" style="text;html=1;strokeColor=none;fillColor=none;align=center;verticalAlign=middle;whiteSpace=wrap;rounded=0;fontSize=16;" parent="1" vertex="1">
          <mxGeometry x="346.13" y="129" width="100" height="30" as="geometry" />
        </mxCell>
        <mxCell id="z8v7z7G2F0ZjTP9mHvDK-12" value="K8s-worker-2" style="text;html=1;strokeColor=none;fillColor=none;align=center;verticalAlign=middle;whiteSpace=wrap;rounded=0;fontSize=16;" parent="1" vertex="1">
          <mxGeometry x="546.13" y="129" width="100" height="30" as="geometry" />
        </mxCell>
        <mxCell id="z8v7z7G2F0ZjTP9mHvDK-14" value="172.16.2.11/16" style="text;html=1;strokeColor=none;fillColor=none;align=center;verticalAlign=middle;whiteSpace=wrap;rounded=0;fontSize=16;" parent="1" vertex="1">
          <mxGeometry x="366.13" y="159" width="60" height="30" as="geometry" />
        </mxCell>
        <mxCell id="z8v7z7G2F0ZjTP9mHvDK-16" value="172.16.2.12/16" style="text;html=1;strokeColor=none;fillColor=none;align=center;verticalAlign=middle;whiteSpace=wrap;rounded=0;fontSize=16;" parent="1" vertex="1">
          <mxGeometry x="566.13" y="159" width="60" height="30" as="geometry" />
        </mxCell>
        <mxCell id="z8v7z7G2F0ZjTP9mHvDK-17" value="" style="rounded=1;whiteSpace=wrap;html=1;fillColor=#d5e8d4;strokeColor=#82b366;gradientColor=#97d077;" parent="1" vertex="1">
          <mxGeometry x="320" y="190" width="360" height="40" as="geometry" />
        </mxCell>
        <mxCell id="z8v7z7G2F0ZjTP9mHvDK-18" value="&lt;font style=&quot;font-size: 20px;&quot;&gt;ingress-nginx service&lt;/font&gt;" style="text;html=1;strokeColor=none;fillColor=none;align=center;verticalAlign=middle;whiteSpace=wrap;rounded=0;" parent="1" vertex="1">
          <mxGeometry x="330" y="195" width="340" height="30" as="geometry" />
        </mxCell>
        <mxCell id="z8v7z7G2F0ZjTP9mHvDK-19" value="" style="shape=image;verticalLabelPosition=bottom;labelBackgroundColor=default;verticalAlign=top;aspect=fixed;imageAspect=0;image=https://upload.wikimedia.org/wikipedia/commons/thumb/d/d2/AWS_Simple_Icons_Networking_Amazon_Elastic_Load_Balancer.svg/1024px-AWS_Simple_Icons_Networking_Amazon_Elastic_Load_Balancer.svg.png;" parent="1" vertex="1">
          <mxGeometry x="320" y="350" width="80" height="80" as="geometry" />
        </mxCell>
        <mxCell id="z8v7z7G2F0ZjTP9mHvDK-20" value="" style="shape=image;verticalLabelPosition=bottom;labelBackgroundColor=default;verticalAlign=top;aspect=fixed;imageAspect=0;image=https://upload.wikimedia.org/wikipedia/commons/thumb/d/d2/AWS_Simple_Icons_Networking_Amazon_Elastic_Load_Balancer.svg/1024px-AWS_Simple_Icons_Networking_Amazon_Elastic_Load_Balancer.svg.png;" parent="1" vertex="1">
          <mxGeometry x="600" y="350" width="80" height="80" as="geometry" />
        </mxCell>
        <mxCell id="z8v7z7G2F0ZjTP9mHvDK-21" value="&lt;font style=&quot;font-size: 16px;&quot;&gt;Workers&lt;/font&gt;" style="text;html=1;strokeColor=none;fillColor=none;align=center;verticalAlign=middle;whiteSpace=wrap;rounded=0;" parent="1" vertex="1">
          <mxGeometry x="470" y="50" width="60" height="30" as="geometry" />
        </mxCell>
        <mxCell id="z8v7z7G2F0ZjTP9mHvDK-22" value="" style="rounded=1;whiteSpace=wrap;html=1;fontSize=16;fillColor=#dae8fc;gradientColor=#7ea6e0;strokeColor=#6c8ebf;" parent="1" vertex="1">
          <mxGeometry x="280" y="600" width="440" height="200" as="geometry" />
        </mxCell>
        <mxCell id="z8v7z7G2F0ZjTP9mHvDK-23" value="" style="shape=image;verticalLabelPosition=bottom;labelBackgroundColor=default;verticalAlign=top;aspect=fixed;imageAspect=0;image=data:image/png,iVBORw0KGgoAAAANSUhEUgAAAIAAAAB8CAYAAAChbripAAAABmJLR0QA/wD/AP+gvaeTAAAgAElEQVR4nO2dd3hUVfrHP+dOS2Ymk0oIRXpTepOOomDZVRQRBbuuZV1dFxVsuJZdyxbX8nNduyI2LOtasFKkCoj0XkIRAgmkkUmmzz2/PyYzmUwmYSaZOwnrfp8Hntxz23vnvOec97wVfkGQUgop5dlSyjellDuklA4pZZGUcpOU8kkpZb/mpvF/0ABSSkVKeaGUco08MZZLKS9sbpr/hwRASmmQUl4jpdweQ8dHYq2UcoqUUjT3d2iJ/8qPk1KagRuBGcApEaddh4751i/b6vLtPeI32cyK95RWiu/sAalZaWalN6BEXL8ReBL4SAihak99cvFfxQBSynTgNuAPQG6tc1A6f51z818/rOhfXuXPiHZ/x9a6g49elbW/byfD6YAp4vQu4K/AO0IIjwbkNwv+KxhASpkD3A7cAWSGn1MlxQs3OLc+9v7xgZVO1RbL87JtSvHMS9O3jh+QOlAIIu8pBJ4FnhdCOBJBf3PipGYAKWVr4E7g94A5/Jxf5dDHyyr3PveZfajbK1Mb8/x0i2K/Z0r6pnMHp54mIhgLKAZeAJ4TQpQ15vktASclA0gpOwPTgZuBlPBzHj8/z5lvP/zK1/YhfhV9It5nMYmq2y5MWztljLWHopAXcdoOvAn8RQhxJBHvSyZOKgaQUvYFZgLToHbnujxy5+vzK4tnf2cfrqrotHi/QS88V4+3rrn5vLR2Bh2dIk67gbeAx4QQB7V4vxY4KRhASjkQuB+4lAia7Q5189P/qXB9sdoxRMrkfI8iUC8ba119x0VpuSaD6Bpx2gN8ADwuhNiZDHqaghbNAFLK0cC9wAWR58qr1K1/fq+cxZtcvZNPWQCKQL1gmHntjEvTzRaTiKRDBb4CHhFCrG0G8mJCi2OAasXLBcADwPCI02phuX/tQ2+VWdfu8ZyafOrqx8hTUzbPuiLdlZehGxrl9ALgISHEymTTdSK0GAaQUirAr4FHgEERp735R3w/znqrrM3uAm+XpBMXB0acatr84BUZrrwM3RDq/r4rgL8KIb5oBtKiotkZQEppBKYCs4AeEafduwp86+97s7TjgSJfm+RT13j06WTc9dAVGce6ttEPhzpC6QbgGQJKpWbVLjYbA0gpLdSoa9vXPkfV2j3utX+cU97raLk/N+oDThJ0yNUdnDU1Y9+Q7qZh1NUubgH+DrwnhPAln7pmYAAppQ24HrgPau+pVSlLF25wbX5ybkX/447o6tqTFe2ydYcfujJjz5DupiFEKK2A/QS0iy8LIVzJpCtpDCClbEWNnr5W56qSY9+tc+56Ym75wCqXjPxx/quQlaaU3DMlfcv4AakDhCA94nQR8BLwtBCiIhn0aM4AUsqOwF0EpvtIde3Bj5dV7nv2c/vpHo9MifqA/1JYTKLytgvT1k0Za+2lCCKXuaCa+f+EEKVa0qEZA0gpuxIwztxCxNrn9sg9r82vLHrrO/uwRKlrT1aYTUrV7Rda104ZY+2uKEQKupXAGwR2Doe1eH/CGaDarWoGcAUR0q/LI3e8+nVlxZyF9qFqkrR2JwuCauabzrO2NepE54jTbuBD4E9CiD2JfG/COkFKOYqAYPfryOcG1bWfr3JEU5I0G7q3M1BQ7MPhls1NSghB7eLMS9OtZpOIVHZ5gbnAk0KI7Yl4X5MZoCF17bHjvo0Pv31cv3qnu9nUtZEw6gW/GprKtDMtdGtroMKh8skKB3OXVHHsuL+5yQtBCOSFw8w/3TXJlppmVvpEnA6qmf8khFjTpPc09kYp5WnAi8DYiFP+g8W+FbNml+dsPeA5rSnEJRJpqQqXjjEz7Qwr2bZIry/w+iXfrnXy9sIq9hz2NgOF9WNc/9Qt912eruakKZFeyxJ4F7hbCHG0Mc9uFANIKScSWJPChTvPjkPelQ/OLuuwr8gXuYY1GzKsCpePtTDtTAtpqXU7PhpW73Tz8pd2Nu5rWZ5fg7sbdz00LaOqfSv9AGr3XSFwthBiW7zPjJsBpJRjgfmAMdhWUOJf9dvnSzocLvG1jfd5WiErTeHKcVamnmEhxdi4iW7jXg+z51eybKsL2XLEBPp3Me54/nfZ/ggL5FFgYLy7hbh+GSllKgEv2e7BpjkLq5Y99+nxyGWg2dA2S8eVZ1m5ZKQZoyExMu6uAi/vLqriq58cqC3EL1gRqG/clb2ibyfTmLDmT4QQk+N5TrwMcB0B9ycAPl/pXPLoe2VnxPMMrdA+R8+1461cNMKMLraZPm4cKvYxd0kV/17hwONt/ilBCOQnD+au6pCrHxHW3EcIsTXmZ8TzQinlN8C5AFVuufXMe4700sr9KlZ0a2vgpvOsnDUgFSXOAV9U7ueHbW5K7H5GnprCqacYEDE8o7DMz5wFlXy60oG7mRkhK00p+e6JPCEgq7rpCSHErFjvj/knqzbblgOpAH/7qGLlB0srRzR8l3bo2kbPtePTOH9IKkqMI15VYWeBl2VbXCzd7GLHIW+ttT3DqjCku4mxfVIY08eEzdzwg8sqVT5aVsW731dR6Wy+teGF27KXDO9lCs7EPwohhsV6bzwMMBwIerQ4Rt51RDTW3bop6NbWwE3nWzmrf3wj3ueXfLTMwdc/Odj+sxe1gYHbOlPH2D4p3HCOldyME09wx6tU3vu+ig+WVmFvBkYY1NW0/dXp2UGlkRfIiDVmIR4GmEHAdk1Zpbp+/P2FA+OmtAnokqfnugnxjfhwrN7p5vnPKhjbN4W+nYxUOlWWb3WzdIuLSpdKz3aGOucyrAp3TooplgQAh1vy+SoHb3xnp6QieYygCNQfn2tbGRbEcqYQYkks98ZjiBkZ/GNDvud4PAQ2BV3b6LnpvDTOHhj/Gh8OKWH7QS/bDwaUPHmZOkb3SeFvv8kkK03H4k1Olm5x8+rX9tDscPHI+CzTZpNg6hkWLhph5t/Lq3h7YRXFFdprF1WJUlKh7s5JVwZXN40CEs4AofV+4QZnWhz3NQodc/Xc8qs0JgxqWsfXh8IyPx8vq2LvES8TBqbyr3n2hD071Si46iwrU8ZY+Hh5FbPnV1Jq13ZGWJfvqTxnUMiiPirW+2JiACllN2q8d9Tl293dG7q+KcjN0HHteCuTR5sx6LQ3GIpYxP5GwmQQXDnOyuRRFj5dqe3SMH+dMz2MAUZKKZVY/A1jXU1DHOX2yHx7VWxBlvHiynFWPvljLlPPsCSl84PQYoYJR4oxsDR8+lBrTmmljfvDqh3u7kDQrzADiMltPm4G2HXYp0n8W1ZaQOBKbaTatrHQuvPDYTYJRpwa6ReaGDjcqsXpluG+AjEtA7EyQEgAXLzJqYni5/SeppiUMI2FoSGq63mvXoNZaFhPbRgAYPtBT7hFMDEMIKWsNZ0s2ujsED9pJ8aIXtr9MACDu5v41+3Z9GxvqNUuBHUYz2wS3PKrNO6OYwsYOx3GRm1jY8H3m9zhH5ewGWBk8DpVcvTno/7IlCsJwVANR0YQw3qaeOeeVvz1hkzaZAWmBAGI6ilArxNcMsrMZw+35ubz0xJmTApHWqrCaR2MJ76wEVi0wRkeNdVVShkZyl4HsUgkIU4qKPbthToerE1G5zw9rWPQuCUCioDxA1MZ3TuFuUuq2PZzwOY/tk8Kd15io4NGQlo4hnQ3smV/4n0NCsv8rf2qPKxTRNAsPwL4T0P3xMUAq3e43U2gr14M7aH96I9EilFw3QQrHl9A63PJqOSFIwzoos0MAHDwmH9/p9b6IAOMoikMIKU0ACFHzvkb3DlNpjAK+nVO/A9SWOZn+VYXPj+M7m2ifU70TzXq607zqoRtBzz8uMtDh1wdI3qlYElJ3HLQv4sRRdCgPaKxWLHN7evUOvStJ5QDTjQDDKQmmMO5ca82CqD+CRgRDVn6/v4xtMvRMaxnwNI3rJepTsdXOFR+3Olm9U43Sze7a6lwFYWQrWBMnxR6tY/NbFwfbGaFznl68o8kPhxw/jpn3pXjLMHDwVJKc0OGoRMxQGj7V16l7vL6ZP8E0FgLOTYdbbOatv473JI5Cyv55icnB49F/1ELiv18Uuxg5XY3Ewamcv051pC5d2+hj9e+sbNimzuqWVdVA3aEnQVeVm53M2WMhfOGNE1FPbCbSRMG2Pqzp5uUVFQbhgzAYGBZfdefiAFCU8jGfV5NMmH172I48UUnwMINTjbt9XDxCDM92hkoLPOzbIuLVTvd+PwyNHr7dDRSWuln2RY3X//k5PKxgZHy0pcVpBoVHrg8nWybwro9ntAskpaqcHpPE8N6mmifo2Pbz17+vaKKgV2NoZ1Eo767s5GPl1U1+dsjoaoopXZ1T7ZNCeZYGEUTGCDMAOSyNHRhY5GI9d/tlayunr4hEPAxureJG861ogjBsq2BZeGVr+2hZSFcH1BeqbJwj4t5PzowGgSDuxmZONzM471M7C/ysXSLi5e/stdaFpq6fg/sqp0guC7fbZ8wMOSq0aAcUC8DVKdiaxc8XL7F2S0x5NWGFgLg7gIvuwu8lFSo2MwK7yyqjPlej1eycrubldvdvHBbNk/MPa6JSbdNlo7WmTqKyhL/7AXrXbZwBmjIMNSQIqjGAOSV+cer1MhEiU2GUS/odUrTlwCtIKirJUwkBmq0Hfxhq6snNYahTKBnfdc2xAAhATD/iDYGoFNPMUTdhiUKTe7AKGriRCIRu59ocHik2emW+WFN9S4DMc0Aize7NPkZ+iZo+q+vk4SI0eetgV7W0liopRyw46CnKOxwZH3XRWWA6jQuoaiTRRucmuj/E7X+6+rbjzUwgsNjB/T1DAMR+i+iXZCQ2IOubQ1YYwxXixeLN7nD5bu4Z4ARVMf2q5LifYW+jgmkLYQ+nRKz/l803Mxfb8iso0+I1vfpFoXfT7RxRY2yhL/ckMl1E6x1lqNoVrveHY28+occ8jKbbrtQBPRN0G8Qie83u8INQ92llFFtOPXtAkIcc6TUlw8kXAWcbVMSZgAS1QaeMX1SeH9xFW/Or6TSqdYy9ZoMgmlnWrh+grXOqLOZA0wxZYyFF+fZ+XKNAymDlsIA8jJ1/O4CG78amppQuaB/ZyMrtyfexFJQ7MtTVQ4rCm0JfMYI4LPI607IAD/u8DoTTh3Qp2Pi1z+TIWDgmTTSzJyFlbg8MsQcf7jYdkKNY16mjkevzuCysWae+U8gR1O6RWHKGAtXjLNoIrD209IwVOw70DG3lmHoxAwgpdQBpweP5693aGIAOq2DNlNfeaXK/iIfN5yThr66v01x2vWD07zXJ3nzrpy4748HfTsFHES0CDr9Yavb2zG3YcNQNBmgP2Ct/tu9Id+jiQFIC6eI8kqVCx4u4jfPFjPz9VJMBtHozhMCjE24P1aYTYLubbUZDPM3OFuHHQ6Wsm4mtmgMEOIUu0PudPtkwo31QkDvjon/6D1HvDg9AR3tmp1uispbTsqXhqCVPmDzfk83KQmqQU0EDEO10CADbNzr1sQA1DZbR7ol8dufb9fWiCuqhPvfLGNfoQ9Vwsrtbl6cZ6fC0fBcW1zh528fHefRd8tZtUMT/5c66K+BOhxAVdGVVqm7w5rqLAPRhMCQ0mDhRpcmwZ+9EzD9e3ySf82zY00VtM/W8/0mFwvW15ZXN+71cOnjtVPn5Bd6eerGLOrD3CWBIE+AH7a5+fbx1vVemyhoKQiu3+OuGD+gfsNQLQaQUnagps6eXL7VFVkNIyFIxPT/7+UO3l5Y28iTlaZw669tDOxqxOGWfLXGwYdLq2pZ7nYdajgB1LHymhmi0pWcAM+2WTpapes0yVK2YL0rLYwBRkophRAi9ItEzsMhDvH45b5Su5qdcIpIjAD4c4TjR7ZNYe59uVwyykznPD29OxqYeWk6T1xXY8MymwR//U0WcxZWctXfjtXZf6sqbA5z1nR5ZJ1QLilh0UYXuwoSm0lMq2Xgh62uHkCQs3KISMkfyQA1BqDDvgItCBKCOr75jcH0i22cP6RmhfrDRelR079NGBRQEAFMGmlhd4GX5z6tYPtBL3e+XMqnPzjw+iWFZX4efqeMA0drM9YTH5RT5QoMGIdb8sDsMma+Vsq1TxWH/A8SgX4JcIyJhiq3tLo89RuGImWA0MllW7QxALXN1iXEwdJkEPzp6kw27/dyqNjH0B71j6ChPYws2+LCnCJqjWivX/Ln98t5/INyVDWg9Dl7QAqt0nX4VDh41McP29yc/8dCerY3sL/IF4ry9fgkby2oTFikj5aewrsKPIX9OpuCI38kgfzDQBgDSCmtQN/g8cL1znZogETueRUFurXVc6jYF3LvjgZP9Wy9eJOL16fn8MN2F+v21Ez1rTN03H6hjXMG1U0+UeWSvPd9JbMXBDSLoXeLxLqS92hvwGQQmuQc+n6jW9+vc4hRa80A4Z87nGqGkFCSX+jrlHBKCGT6SBQ8Psnu6rX4u3XR6yyoKizYENgd7C7w8tvni5l+sS3k0Dmgq5F372kVcPKMsjO1pAhuOj+N16fnkGOrUSVPn2QjTLhqMgw6oYluBGDRRle4Ma9nde0GoDYDhDijqNSXr1UNvkTt/1UJf3yrnIKSgHzz6jf2WqM6eM0/v6hgx8EagW3bz4EsIZYUhY65ep69JSsmmnqdYuCZW7IwGgRmk2DaGdYT3hPv92iFQ8W+dqpK0KlHEFaNLfzLQwLgml1ezYoiv/t9VUKyZRSV+UMjGwK+fLc8X8yj75Yzb3Ug+fMNTxfz1oLAVjE4us0mQVaaDrtT5d4p6TGnj4WA/eKKMy14feBLcI+9/GVdBk4kDhX79ocdhgZ7YMoPlGwLpRb7dr2zfk1JE3G03M+9b5Ty4u3ZTQq/bpOl49zBqXy71knnPD19OxlZs8vN56scfL6qhn875up57NpMerU3sHGfh0PFPv75eQXd2xkY1oiI5CvHWZmzsJJPVjiYekZiHKW/3+ji9e8Sl6ImGn7Y4fZ0iGIYEgBSyv4ESpkBuEfcdUT1aJwCbtqZFmZMjiyZEx/8Kvx81EfnarnC45PMml3Goo018sC797Ri1Q43L8yrqGVxu26Cld9PbFz497X/KGbbAQ/nDUnl1FOM5GYqnNk3pVEMvbfQx7VPHdO8ZsHArsbtr03PCYb5u4F0IYQ7OP+FGYDU3Vp3PsD7i6v45qemuRroFEKdDwEv4xvPS6t13KOdge/WOeuYW9tmN94ZpX22DlXCV2uc/OOT49z7ehlzl8Qf5GF3qtz9SmlSClZs2ufpLiVBIk1UF+eswwBbDnhKNKemGn9+vzwkxScKPdsbOKt/Ch1a6bnyLAuKEl3w1DXBrSfabuFIaXxqXFXCg2+V19FoagW/ir68St0V1jQKavQAIQZYtMmdtFhtl0cy47Uy3p6Zc8K0rPHg7xHGngenZvDNWgclFSqrd7rZX+TjSBMCMiI7WxGBFDfx4KUv7SzfmtQSgWzY664Y16+WYegpvZSyLRDaJy7bUsuZUHMcKvbx4Jxynr0lS7OETe1ydPzm3MDS4PVLbnuhlFU73Nz66/jTHVY6Vbbs99K/i5HbLrSRlxHQbGZYY2fgRRtdvKGx0BcNC9e7rGEMMFpKKRRgdLDF62f/sWYo1bpiayD2Lhkw6ATXT7Cy9YCnUVk6Pl7uwGQUPH1TFoO7GWmXo4ur8/OP+Hj47bJmKUCxdEsdw1A3hbAA0J+LfIeST1YAb3xrZ+mW5EyJGVYFKeEvHx6PS/V64KiPN76zM7ibMa5OD8LuVJnxanKEvmiocsk0t0fuDWsaWWv/v6PA2ywFjKFaszcnOULRh9UOH9sPenlgdlktHX99KCjxc+fLpVS5ApbDeEewKmFWEoW++lBsV8OF/GEKEIr6PVzia9biD5VJGCGvfG2vpShavMnF9U8Xs7YeLZyqwqcrHVzz1LGQqXjnIS/vL45v2/fSl3ZWJFnoi4ZSuxr+oR31QEgSyknTN7sXZf4RH396r5wnr8tMeGCmqsLr39b2IkpLVahwqNz8XDFd8vSc3tNEmywdbq+koNjP8m2uqPl9n/n0OIO7G2PybVi4oXmEvmjITFPCCc7UAyVU5wEY0M3QImK1569z0ruDgavPTqzBRVFg0kgzH1Vn5rhinIXfX2jDaBBsyPdw35u1FTpCwNQzLEwaaUGnwAtfVNTSMsaC/CM+HnmneYS+aMjNUMKdHA/rHnnkkVFUZwLNsCrWOQsrpc9PszPCj7vc9O9irDe7V2Mx8rQU8jJ0TBxu5opxVnTV6tu8LB1pZoUlm2s6+LwhqfxxWgZZaQoZVoXxA1OpdKoUlqrcMyWdkac2XPDc7lS59fkSipNYPKIh9Otk3Dl5lCU8zuN9BfgkeCQg655LM35MPml1oaoBt+6guTdRUESgEMS4/nU7r3Pr2swWmb9QETBjcjrfPt6aC05v2BlElTBrdlmzC33heOy6jPKIprkKgWLEO4MtE4enDO3e3pBPC8DxKpWZr5XGJKUnApaU2lu7VlF8DGPFi/MqWLEtOXEFseDyMZZV7bL14cWk3hVC7FGEEH7gRgLFhhBCWObMyBFpqUrSysI0hJ2HvPz5vUjG1Qad8/TccI6Vwd2MTBppZkgjM5gu3ODizfmx5yXSGj3aG/bNnJIeXoD6KHAXhIXQSynvAJ4LHhcfV9ee/1DhgOauCxjEnZNsXHVWYoVCLbC/yMc1Tx0LeRI3Nywpwj7/ibxjJoMIqvh9wAQhxGII8wgSQvwf8HrwOCddGfy3GzLrzS+XbDz3WQU/tKApNRoqHCrTq5VFLQGKQP1oVu6OsM4HuDPY+VA3LuB2ICQEjuufesa0cdaVtACoKsx6q4yC4mZXVUSFKuHBOeX1ZiptDjx9c/bS1hm6oWFNbwsh/hl+TS0GEEK4gIuBYAVqcfckW79TOxjCAwybDRUOlRmvlYYigFsSXviiokVo+oKYPCp19Zg+oWqiAOuAWyKvqyPmCiGOAJcScBtCCCxv3d0qNTNNlGpFbDzYVeDlsSQJhbHi+42ukPNpS0CPdvq991+eeRo1Ml4RcJEQoo4LVtR9jhBiJTA9eKxTaP/Bfa33KwotYv79Zq0zruyfWmJfoY+HW5CmL92sK58zM1cnREjF7wUuE0JEtfTWu9EVQrwEvBI8zrYpg565KWt5QqltAlqCUFjhULnzlZYl9H3wQM4eg47wQJDfCyGW1ndPg+aW6oIRC4ExwaZnPqlY+c73lfUmHkwm0i1Ks1QbCeLAUV/CfRqbgn/+LmvJiFNTwtf92UKI6xu654T2turCQ2uA9tVNzhufLd6/Pt8TU2HC/yE5mHqGddnMS22jqenTlcA4IUSD0+QJdZ1CiEJgCtVCIZD68h3Ztqw0JWnew/9Dw+jTybhr5qW2QdR0fiEw5USdDzEWjhRCrAJuDh7rFNHuwwdyD+gUWs6m9xeKdItS9tr07FQgGKbkJdD5MeV3iNnaIYSYA7wQPM60KoP+eWvWiniIPVmx6C95zHtU+1xB8UKn4Pv3g7kHDDoRnsv5d0KImIX1eM1ddwKLgwen90o54+bz01qMuviXhpdub7Ui06oMCGv6pxDitXieERcDCCG8BJRE+4Jtt/wqbeiQ7sZt8Tznf2g6rptgXTGouyFc4v8BuDve58Rt8BZClACTgaBnZcqLt+dkZNuU4nif9T80Dv06G3f8fqJtYFjTQWCSECLuQIdG+VsJIdZLKW8B3gZQFNr+e1bu5gmzimxen0xospue7Q28d28r5q128K8v7dxxkY0RvUykGgW7D/t4+av6HS/OG5LKZWMsdG9nQK/AwWI/X//k4N1FVXVSyigCpp5pYfIoC22zdZRVqixc7+LFLysapK9fZyNXn21lQBcjNrOgvEplzS4Pr31jZ39R4mXkHJty7PXpOTZq6jm6gMlCiKMN3FYvmuR3K6V8hjCV8fo97qU3PlcytinPjESQAdbsctO1jYGj5X627PeQZdNxZr+AW9dNzxWzIb828wf9B0oqVOavd+LySMb0SaFrGz3r8z3c+nwJXn8NE8yamsElo8wUlPhZsN6JlDB+YAolFSpd2uipdEoueLio1jsmjTTzwNQMyuwqS7e4KLX7aZet56wBKfhVuPX5klpp55oKvU7xfvt47rYMixJev/E3Qog36r3pRM9sIk0zCDiUngswsJtp7K0XpC17cZ59TMO3xY+hPUy89o2dl76qKf124TAzj1yVwdVnWdmQX2OrGtTNyFVnWTlU7OOap4o5XhVwyvzXvAqeuSWbUaeZuGa8lde/DbhqD+5u4pJRZnYVeLnh6eKQtfHVb+y8Pj2HtFSFSmdtM0jnPD33XZbOym0uZrxWVmtG6fqdntl3t+LBaelc/uSxhP0Gr/4hc2WGRQkfYM80pfOhETJAOKrdya4AQuFGN56bNnzUaSmbmvLcaDhS6uflsLp/AF/+6MDhlnVSz180PDA7vvpNZajzIZBQ4pn/HEdKuGhEjVPnxGGBgMmXv7LXMjW7PJJ/fRndn3/KGAt6nWDOwirSzIJsmxL6F1gG3HRra2hScclw3HBO2op+nU3hnb8IuKepz22yz7UQolRKeQmwgoAywvDsb7PyLnykqLCw1H/C+vWxYuchb50kD6qEY8f9dSqPBIM11u6uKxvsK/RRXOGnXbaOtFQFu1MNXR8tR8/6PdHli2C9o5fvaDiZao5NF3fugEic3jNly20Xpg0JazoATBVCNFnISIjTvRBio5TyGuBjQCiC3Ln3ttpy7qyizESlm49W0xfA56+bsCFYEiZaRA9AcYVKq3Qd1lSB3Rm43q8SNZO4wy2jOqAEk07c/WppgzkKmyoItsrQHX3hd1nZBLJ6ADgJCH0JWVsSFnUhhPhESvkUMBMgzaz0mT0jZ/m0vxwbfYJbE44As+jItilRR19Otbt3pVOGrm+TpcNmVuowgdkkSDUKIl1Qgu8oLPPXSkOXSOh1iveD+1oVKgr9wpp/I4RYm6h3JDpp/33A18GDHu0Mo++YaKvXFq0VdlZnBB/cve7k0zFXT45NR6svp0IAAAQaSURBVEGJH3v1rBK8flC3ujvYQd2iT2BB6T48X3Gi8cb07FXpFiW88/8uhHg/ke9IKANU16e9EtgTbLt2gnXE2D4pGxP5nhPhs+ro35vOs9bKD6RT4K5LbAgBn62siRD+YnXAU+qWX6WRaqzZGacYRb1ZRD5YUoVfDcQORvNJMJsEEwY1njnuuNi2tHcnQ/huagHwQKMfWA8SG3gHCCHKpJQTgVUQqGH/j5uz2k58+OiRI2W+Nol+XzSs2+PhnUWVXHWWlY9n5bJgvRO3VzKqdwpd8gJ6gDlhPnw/7Xbznx8cTBpp5sNZuSzaENADnNU/laPHa2aKcOQf8fH4++XMmpbBi7dns2qHm52HvOgU6NRaz9AeJn4+5mP+uvgzoQ3vadp87dnW8Cie/cC0RAh9kUg4AwAIIbZLKa8lEHcoFEGrj2a12nH2/YUZ7iSkoAN45j+BFLFTxlq4YJgZvQ4OHvPzwhcVvPN9VS0lEMATc8vZV+hj8mgzl59hocyusqBaE1ifJfCzVQ52HPJy5TgrQ7obGdojUKji2HGVeasdfNuIzm+dri96/ndZudQIfZXARCGEJqp2TUtiSSkfA2YFj/MP+1Zc9uTRBuvZ/5JhNArXgify8i0mESzbKwls9z7U6p3aFK6twUPAvOBB17b6UTMuSb5QeLLgjemt1oR1PsCTWnY+aMwA1ULhFUDIXDxtnHXkuH4pG+q/65eJGZNtS049RR8u9H1HYABpCq1nAIQQduASIBhtrP/7TVkdOuTqDmr97pMFI05L2TTtTOuIsKbdwOXVqnZNoTkDAAghdgLXACoEElG8f2+uI8UoNEtLf7KgXbbu8P/9NqstEFRCVBKw7Scl/CkpDAAghPgc+HPwOMUoer49o9UveikwGoXr/ftzyxURqs4ugeuFEFuTRUPSGKAajxKwFwDQpY1+5P2Xpy9JMg0tBrPvyvnJYhKnhTX9SQjxcb03aICkMkB1wcLrgRCHXzraMvr8oeafkklHS8ADUzMX92xnCLeTfA78Kdl0JHsGQAhRSUAoDK5xuj9fk9GlU67+52TT0lwYPyh13eRRqeGdvwO4unrXlFQknQEAhBC7gMupTlwsIOujWbn6XwITjO2TsvEv12X2pEYLaydg3m3Y+VAjaKoJPBGklA8Aj4eOofTVr+3bXvnaPkqrqmXNBZNBOJ+4PnP1mX1TRlIj8asE4vbnNXCrpmhuBhDABwRiD0Pwq/Lw2l2e3Wt2e/SHSnwpqnpyMkOKUfg75+pcI3qniB5tDX2FILJI0h+FEI81C3HVaPYfVkppBD4CJjY3LUnGP4QQM5qbiGaRAcJRHcxwGfAE1bkK/8tRCtzUEjofWsAMEA4pZTcCGsNfA52BzIbvOCkgCYRr7yJgHn9PK9NuY/D/eWutrXjnXkEAAAAASUVORK5CYII=;fontSize=16;" parent="1" vertex="1">
          <mxGeometry x="360" y="626" width="73.29" height="71" as="geometry" />
        </mxCell>
        <mxCell id="z8v7z7G2F0ZjTP9mHvDK-24" value="" style="shape=image;verticalLabelPosition=bottom;labelBackgroundColor=default;verticalAlign=top;aspect=fixed;imageAspect=0;image=data:image/png,iVBORw0KGgoAAAANSUhEUgAAAIAAAAB8CAYAAAChbripAAAABmJLR0QA/wD/AP+gvaeTAAAgAElEQVR4nO2dd3hUVfrHP+dOS2Ymk0oIRXpTepOOomDZVRQRBbuuZV1dFxVsuJZdyxbX8nNduyI2LOtasFKkCoj0XkIRAgmkkUmmzz2/PyYzmUwmYSaZOwnrfp8Hntxz23vnvOec97wVfkGQUgop5dlSyjellDuklA4pZZGUcpOU8kkpZb/mpvF/0ABSSkVKeaGUco08MZZLKS9sbpr/hwRASmmQUl4jpdweQ8dHYq2UcoqUUjT3d2iJ/8qPk1KagRuBGcApEaddh4751i/b6vLtPeI32cyK95RWiu/sAalZaWalN6BEXL8ReBL4SAihak99cvFfxQBSynTgNuAPQG6tc1A6f51z818/rOhfXuXPiHZ/x9a6g49elbW/byfD6YAp4vQu4K/AO0IIjwbkNwv+KxhASpkD3A7cAWSGn1MlxQs3OLc+9v7xgZVO1RbL87JtSvHMS9O3jh+QOlAIIu8pBJ4FnhdCOBJBf3PipGYAKWVr4E7g94A5/Jxf5dDHyyr3PveZfajbK1Mb8/x0i2K/Z0r6pnMHp54mIhgLKAZeAJ4TQpQ15vktASclA0gpOwPTgZuBlPBzHj8/z5lvP/zK1/YhfhV9It5nMYmq2y5MWztljLWHopAXcdoOvAn8RQhxJBHvSyZOKgaQUvYFZgLToHbnujxy5+vzK4tnf2cfrqrotHi/QS88V4+3rrn5vLR2Bh2dIk67gbeAx4QQB7V4vxY4KRhASjkQuB+4lAia7Q5189P/qXB9sdoxRMrkfI8iUC8ba119x0VpuSaD6Bpx2gN8ADwuhNiZDHqaghbNAFLK0cC9wAWR58qr1K1/fq+cxZtcvZNPWQCKQL1gmHntjEvTzRaTiKRDBb4CHhFCrG0G8mJCi2OAasXLBcADwPCI02phuX/tQ2+VWdfu8ZyafOrqx8hTUzbPuiLdlZehGxrl9ALgISHEymTTdSK0GAaQUirAr4FHgEERp735R3w/znqrrM3uAm+XpBMXB0acatr84BUZrrwM3RDq/r4rgL8KIb5oBtKiotkZQEppBKYCs4AeEafduwp86+97s7TjgSJfm+RT13j06WTc9dAVGce6ttEPhzpC6QbgGQJKpWbVLjYbA0gpLdSoa9vXPkfV2j3utX+cU97raLk/N+oDThJ0yNUdnDU1Y9+Q7qZh1NUubgH+DrwnhPAln7pmYAAppQ24HrgPau+pVSlLF25wbX5ybkX/447o6tqTFe2ydYcfujJjz5DupiFEKK2A/QS0iy8LIVzJpCtpDCClbEWNnr5W56qSY9+tc+56Ym75wCqXjPxx/quQlaaU3DMlfcv4AakDhCA94nQR8BLwtBCiIhn0aM4AUsqOwF0EpvtIde3Bj5dV7nv2c/vpHo9MifqA/1JYTKLytgvT1k0Za+2lCCKXuaCa+f+EEKVa0qEZA0gpuxIwztxCxNrn9sg9r82vLHrrO/uwRKlrT1aYTUrV7Rda104ZY+2uKEQKupXAGwR2Doe1eH/CGaDarWoGcAUR0q/LI3e8+nVlxZyF9qFqkrR2JwuCauabzrO2NepE54jTbuBD4E9CiD2JfG/COkFKOYqAYPfryOcG1bWfr3JEU5I0G7q3M1BQ7MPhls1NSghB7eLMS9OtZpOIVHZ5gbnAk0KI7Yl4X5MZoCF17bHjvo0Pv31cv3qnu9nUtZEw6gW/GprKtDMtdGtroMKh8skKB3OXVHHsuL+5yQtBCOSFw8w/3TXJlppmVvpEnA6qmf8khFjTpPc09kYp5WnAi8DYiFP+g8W+FbNml+dsPeA5rSnEJRJpqQqXjjEz7Qwr2bZIry/w+iXfrnXy9sIq9hz2NgOF9WNc/9Qt912eruakKZFeyxJ4F7hbCHG0Mc9uFANIKScSWJPChTvPjkPelQ/OLuuwr8gXuYY1GzKsCpePtTDtTAtpqXU7PhpW73Tz8pd2Nu5rWZ5fg7sbdz00LaOqfSv9AGr3XSFwthBiW7zPjJsBpJRjgfmAMdhWUOJf9dvnSzocLvG1jfd5WiErTeHKcVamnmEhxdi4iW7jXg+z51eybKsL2XLEBPp3Me54/nfZ/ggL5FFgYLy7hbh+GSllKgEv2e7BpjkLq5Y99+nxyGWg2dA2S8eVZ1m5ZKQZoyExMu6uAi/vLqriq58cqC3EL1gRqG/clb2ibyfTmLDmT4QQk+N5TrwMcB0B9ycAPl/pXPLoe2VnxPMMrdA+R8+1461cNMKMLraZPm4cKvYxd0kV/17hwONt/ilBCOQnD+au6pCrHxHW3EcIsTXmZ8TzQinlN8C5AFVuufXMe4700sr9KlZ0a2vgpvOsnDUgFSXOAV9U7ueHbW5K7H5GnprCqacYEDE8o7DMz5wFlXy60oG7mRkhK00p+e6JPCEgq7rpCSHErFjvj/knqzbblgOpAH/7qGLlB0srRzR8l3bo2kbPtePTOH9IKkqMI15VYWeBl2VbXCzd7GLHIW+ttT3DqjCku4mxfVIY08eEzdzwg8sqVT5aVsW731dR6Wy+teGF27KXDO9lCs7EPwohhsV6bzwMMBwIerQ4Rt51RDTW3bop6NbWwE3nWzmrf3wj3ueXfLTMwdc/Odj+sxe1gYHbOlPH2D4p3HCOldyME09wx6tU3vu+ig+WVmFvBkYY1NW0/dXp2UGlkRfIiDVmIR4GmEHAdk1Zpbp+/P2FA+OmtAnokqfnugnxjfhwrN7p5vnPKhjbN4W+nYxUOlWWb3WzdIuLSpdKz3aGOucyrAp3TooplgQAh1vy+SoHb3xnp6QieYygCNQfn2tbGRbEcqYQYkks98ZjiBkZ/GNDvud4PAQ2BV3b6LnpvDTOHhj/Gh8OKWH7QS/bDwaUPHmZOkb3SeFvv8kkK03H4k1Olm5x8+rX9tDscPHI+CzTZpNg6hkWLhph5t/Lq3h7YRXFFdprF1WJUlKh7s5JVwZXN40CEs4AofV+4QZnWhz3NQodc/Xc8qs0JgxqWsfXh8IyPx8vq2LvES8TBqbyr3n2hD071Si46iwrU8ZY+Hh5FbPnV1Jq13ZGWJfvqTxnUMiiPirW+2JiACllN2q8d9Tl293dG7q+KcjN0HHteCuTR5sx6LQ3GIpYxP5GwmQQXDnOyuRRFj5dqe3SMH+dMz2MAUZKKZVY/A1jXU1DHOX2yHx7VWxBlvHiynFWPvljLlPPsCSl84PQYoYJR4oxsDR8+lBrTmmljfvDqh3u7kDQrzADiMltPm4G2HXYp0n8W1ZaQOBKbaTatrHQuvPDYTYJRpwa6ReaGDjcqsXpluG+AjEtA7EyQEgAXLzJqYni5/SeppiUMI2FoSGq63mvXoNZaFhPbRgAYPtBT7hFMDEMIKWsNZ0s2ujsED9pJ8aIXtr9MACDu5v41+3Z9GxvqNUuBHUYz2wS3PKrNO6OYwsYOx3GRm1jY8H3m9zhH5ewGWBk8DpVcvTno/7IlCsJwVANR0YQw3qaeOeeVvz1hkzaZAWmBAGI6ilArxNcMsrMZw+35ubz0xJmTApHWqrCaR2MJ76wEVi0wRkeNdVVShkZyl4HsUgkIU4qKPbthToerE1G5zw9rWPQuCUCioDxA1MZ3TuFuUuq2PZzwOY/tk8Kd15io4NGQlo4hnQ3smV/4n0NCsv8rf2qPKxTRNAsPwL4T0P3xMUAq3e43U2gr14M7aH96I9EilFw3QQrHl9A63PJqOSFIwzoos0MAHDwmH9/p9b6IAOMoikMIKU0ACFHzvkb3DlNpjAK+nVO/A9SWOZn+VYXPj+M7m2ifU70TzXq607zqoRtBzz8uMtDh1wdI3qlYElJ3HLQv4sRRdCgPaKxWLHN7evUOvStJ5QDTjQDDKQmmMO5ca82CqD+CRgRDVn6/v4xtMvRMaxnwNI3rJepTsdXOFR+3Olm9U43Sze7a6lwFYWQrWBMnxR6tY/NbFwfbGaFznl68o8kPhxw/jpn3pXjLMHDwVJKc0OGoRMxQGj7V16l7vL6ZP8E0FgLOTYdbbOatv473JI5Cyv55icnB49F/1ELiv18Uuxg5XY3Ewamcv051pC5d2+hj9e+sbNimzuqWVdVA3aEnQVeVm53M2WMhfOGNE1FPbCbSRMG2Pqzp5uUVFQbhgzAYGBZfdefiAFCU8jGfV5NMmH172I48UUnwMINTjbt9XDxCDM92hkoLPOzbIuLVTvd+PwyNHr7dDRSWuln2RY3X//k5PKxgZHy0pcVpBoVHrg8nWybwro9ntAskpaqcHpPE8N6mmifo2Pbz17+vaKKgV2NoZ1Eo767s5GPl1U1+dsjoaoopXZ1T7ZNCeZYGEUTGCDMAOSyNHRhY5GI9d/tlayunr4hEPAxureJG861ogjBsq2BZeGVr+2hZSFcH1BeqbJwj4t5PzowGgSDuxmZONzM471M7C/ysXSLi5e/stdaFpq6fg/sqp0guC7fbZ8wMOSq0aAcUC8DVKdiaxc8XL7F2S0x5NWGFgLg7gIvuwu8lFSo2MwK7yyqjPlej1eycrubldvdvHBbNk/MPa6JSbdNlo7WmTqKyhL/7AXrXbZwBmjIMNSQIqjGAOSV+cer1MhEiU2GUS/odUrTlwCtIKirJUwkBmq0Hfxhq6snNYahTKBnfdc2xAAhATD/iDYGoFNPMUTdhiUKTe7AKGriRCIRu59ocHik2emW+WFN9S4DMc0Aize7NPkZ+iZo+q+vk4SI0eetgV7W0liopRyw46CnKOxwZH3XRWWA6jQuoaiTRRucmuj/E7X+6+rbjzUwgsNjB/T1DAMR+i+iXZCQ2IOubQ1YYwxXixeLN7nD5bu4Z4ARVMf2q5LifYW+jgmkLYQ+nRKz/l803Mxfb8iso0+I1vfpFoXfT7RxRY2yhL/ckMl1E6x1lqNoVrveHY28+occ8jKbbrtQBPRN0G8Qie83u8INQ92llFFtOPXtAkIcc6TUlw8kXAWcbVMSZgAS1QaeMX1SeH9xFW/Or6TSqdYy9ZoMgmlnWrh+grXOqLOZA0wxZYyFF+fZ+XKNAymDlsIA8jJ1/O4CG78amppQuaB/ZyMrtyfexFJQ7MtTVQ4rCm0JfMYI4LPI607IAD/u8DoTTh3Qp2Pi1z+TIWDgmTTSzJyFlbg8MsQcf7jYdkKNY16mjkevzuCysWae+U8gR1O6RWHKGAtXjLNoIrD209IwVOw70DG3lmHoxAwgpdQBpweP5693aGIAOq2DNlNfeaXK/iIfN5yThr66v01x2vWD07zXJ3nzrpy4748HfTsFHES0CDr9Yavb2zG3YcNQNBmgP2Ct/tu9Id+jiQFIC6eI8kqVCx4u4jfPFjPz9VJMBtHozhMCjE24P1aYTYLubbUZDPM3OFuHHQ6Wsm4mtmgMEOIUu0PudPtkwo31QkDvjon/6D1HvDg9AR3tmp1uispbTsqXhqCVPmDzfk83KQmqQU0EDEO10CADbNzr1sQA1DZbR7ol8dufb9fWiCuqhPvfLGNfoQ9Vwsrtbl6cZ6fC0fBcW1zh528fHefRd8tZtUMT/5c66K+BOhxAVdGVVqm7w5rqLAPRhMCQ0mDhRpcmwZ+9EzD9e3ySf82zY00VtM/W8/0mFwvW15ZXN+71cOnjtVPn5Bd6eerGLOrD3CWBIE+AH7a5+fbx1vVemyhoKQiu3+OuGD+gfsNQLQaQUnagps6eXL7VFVkNIyFIxPT/7+UO3l5Y28iTlaZw669tDOxqxOGWfLXGwYdLq2pZ7nYdajgB1LHymhmi0pWcAM+2WTpapes0yVK2YL0rLYwBRkophRAi9ItEzsMhDvH45b5Su5qdcIpIjAD4c4TjR7ZNYe59uVwyykznPD29OxqYeWk6T1xXY8MymwR//U0WcxZWctXfjtXZf6sqbA5z1nR5ZJ1QLilh0UYXuwoSm0lMq2Xgh62uHkCQs3KISMkfyQA1BqDDvgItCBKCOr75jcH0i22cP6RmhfrDRelR079NGBRQEAFMGmlhd4GX5z6tYPtBL3e+XMqnPzjw+iWFZX4efqeMA0drM9YTH5RT5QoMGIdb8sDsMma+Vsq1TxWH/A8SgX4JcIyJhiq3tLo89RuGImWA0MllW7QxALXN1iXEwdJkEPzp6kw27/dyqNjH0B71j6ChPYws2+LCnCJqjWivX/Ln98t5/INyVDWg9Dl7QAqt0nX4VDh41McP29yc/8dCerY3sL/IF4ry9fgkby2oTFikj5aewrsKPIX9OpuCI38kgfzDQBgDSCmtQN/g8cL1znZogETueRUFurXVc6jYF3LvjgZP9Wy9eJOL16fn8MN2F+v21Ez1rTN03H6hjXMG1U0+UeWSvPd9JbMXBDSLoXeLxLqS92hvwGQQmuQc+n6jW9+vc4hRa80A4Z87nGqGkFCSX+jrlHBKCGT6SBQ8Psnu6rX4u3XR6yyoKizYENgd7C7w8tvni5l+sS3k0Dmgq5F372kVcPKMsjO1pAhuOj+N16fnkGOrUSVPn2QjTLhqMgw6oYluBGDRRle4Ma9nde0GoDYDhDijqNSXr1UNvkTt/1UJf3yrnIKSgHzz6jf2WqM6eM0/v6hgx8EagW3bz4EsIZYUhY65ep69JSsmmnqdYuCZW7IwGgRmk2DaGdYT3hPv92iFQ8W+dqpK0KlHEFaNLfzLQwLgml1ezYoiv/t9VUKyZRSV+UMjGwK+fLc8X8yj75Yzb3Ug+fMNTxfz1oLAVjE4us0mQVaaDrtT5d4p6TGnj4WA/eKKMy14feBLcI+9/GVdBk4kDhX79ocdhgZ7YMoPlGwLpRb7dr2zfk1JE3G03M+9b5Ty4u3ZTQq/bpOl49zBqXy71knnPD19OxlZs8vN56scfL6qhn875up57NpMerU3sHGfh0PFPv75eQXd2xkY1oiI5CvHWZmzsJJPVjiYekZiHKW/3+ji9e8Sl6ImGn7Y4fZ0iGIYEgBSyv4ESpkBuEfcdUT1aJwCbtqZFmZMjiyZEx/8Kvx81EfnarnC45PMml3Goo018sC797Ri1Q43L8yrqGVxu26Cld9PbFz497X/KGbbAQ/nDUnl1FOM5GYqnNk3pVEMvbfQx7VPHdO8ZsHArsbtr03PCYb5u4F0IYQ7OP+FGYDU3Vp3PsD7i6v45qemuRroFEKdDwEv4xvPS6t13KOdge/WOeuYW9tmN94ZpX22DlXCV2uc/OOT49z7ehlzl8Qf5GF3qtz9SmlSClZs2ufpLiVBIk1UF+eswwBbDnhKNKemGn9+vzwkxScKPdsbOKt/Ch1a6bnyLAuKEl3w1DXBrSfabuFIaXxqXFXCg2+V19FoagW/ir68St0V1jQKavQAIQZYtMmdtFhtl0cy47Uy3p6Zc8K0rPHg7xHGngenZvDNWgclFSqrd7rZX+TjSBMCMiI7WxGBFDfx4KUv7SzfmtQSgWzY664Y16+WYegpvZSyLRDaJy7bUsuZUHMcKvbx4Jxynr0lS7OETe1ydPzm3MDS4PVLbnuhlFU73Nz66/jTHVY6Vbbs99K/i5HbLrSRlxHQbGZYY2fgRRtdvKGx0BcNC9e7rGEMMFpKKRRgdLDF62f/sWYo1bpiayD2Lhkw6ATXT7Cy9YCnUVk6Pl7uwGQUPH1TFoO7GWmXo4ur8/OP+Hj47bJmKUCxdEsdw1A3hbAA0J+LfIeST1YAb3xrZ+mW5EyJGVYFKeEvHx6PS/V64KiPN76zM7ibMa5OD8LuVJnxanKEvmiocsk0t0fuDWsaWWv/v6PA2ywFjKFaszcnOULRh9UOH9sPenlgdlktHX99KCjxc+fLpVS5ApbDeEewKmFWEoW++lBsV8OF/GEKEIr6PVzia9biD5VJGCGvfG2vpShavMnF9U8Xs7YeLZyqwqcrHVzz1LGQqXjnIS/vL45v2/fSl3ZWJFnoi4ZSuxr+oR31QEgSyknTN7sXZf4RH396r5wnr8tMeGCmqsLr39b2IkpLVahwqNz8XDFd8vSc3tNEmywdbq+koNjP8m2uqPl9n/n0OIO7G2PybVi4oXmEvmjITFPCCc7UAyVU5wEY0M3QImK1569z0ruDgavPTqzBRVFg0kgzH1Vn5rhinIXfX2jDaBBsyPdw35u1FTpCwNQzLEwaaUGnwAtfVNTSMsaC/CM+HnmneYS+aMjNUMKdHA/rHnnkkVFUZwLNsCrWOQsrpc9PszPCj7vc9O9irDe7V2Mx8rQU8jJ0TBxu5opxVnTV6tu8LB1pZoUlm2s6+LwhqfxxWgZZaQoZVoXxA1OpdKoUlqrcMyWdkac2XPDc7lS59fkSipNYPKIh9Otk3Dl5lCU8zuN9BfgkeCQg655LM35MPml1oaoBt+6guTdRUESgEMS4/nU7r3Pr2swWmb9QETBjcjrfPt6aC05v2BlElTBrdlmzC33heOy6jPKIprkKgWLEO4MtE4enDO3e3pBPC8DxKpWZr5XGJKUnApaU2lu7VlF8DGPFi/MqWLEtOXEFseDyMZZV7bL14cWk3hVC7FGEEH7gRgLFhhBCWObMyBFpqUrSysI0hJ2HvPz5vUjG1Qad8/TccI6Vwd2MTBppZkgjM5gu3ODizfmx5yXSGj3aG/bNnJIeXoD6KHAXhIXQSynvAJ4LHhcfV9ee/1DhgOauCxjEnZNsXHVWYoVCLbC/yMc1Tx0LeRI3Nywpwj7/ibxjJoMIqvh9wAQhxGII8wgSQvwf8HrwOCddGfy3GzLrzS+XbDz3WQU/tKApNRoqHCrTq5VFLQGKQP1oVu6OsM4HuDPY+VA3LuB2ICQEjuufesa0cdaVtACoKsx6q4yC4mZXVUSFKuHBOeX1ZiptDjx9c/bS1hm6oWFNbwsh/hl+TS0GEEK4gIuBYAVqcfckW79TOxjCAwybDRUOlRmvlYYigFsSXviiokVo+oKYPCp19Zg+oWqiAOuAWyKvqyPmCiGOAJcScBtCCCxv3d0qNTNNlGpFbDzYVeDlsSQJhbHi+42ukPNpS0CPdvq991+eeRo1Ml4RcJEQoo4LVtR9jhBiJTA9eKxTaP/Bfa33KwotYv79Zq0zruyfWmJfoY+HW5CmL92sK58zM1cnREjF7wUuE0JEtfTWu9EVQrwEvBI8zrYpg565KWt5QqltAlqCUFjhULnzlZYl9H3wQM4eg47wQJDfCyGW1ndPg+aW6oIRC4ExwaZnPqlY+c73lfUmHkwm0i1Ks1QbCeLAUV/CfRqbgn/+LmvJiFNTwtf92UKI6xu654T2turCQ2uA9tVNzhufLd6/Pt8TU2HC/yE5mHqGddnMS22jqenTlcA4IUSD0+QJdZ1CiEJgCtVCIZD68h3Ztqw0JWnew/9Dw+jTybhr5qW2QdR0fiEw5USdDzEWjhRCrAJuDh7rFNHuwwdyD+gUWs6m9xeKdItS9tr07FQgGKbkJdD5MeV3iNnaIYSYA7wQPM60KoP+eWvWiniIPVmx6C95zHtU+1xB8UKn4Pv3g7kHDDoRnsv5d0KImIX1eM1ddwKLgwen90o54+bz01qMuviXhpdub7Ui06oMCGv6pxDitXieERcDCCG8BJRE+4Jtt/wqbeiQ7sZt8Tznf2g6rptgXTGouyFc4v8BuDve58Rt8BZClACTgaBnZcqLt+dkZNuU4nif9T80Dv06G3f8fqJtYFjTQWCSECLuQIdG+VsJIdZLKW8B3gZQFNr+e1bu5gmzimxen0xospue7Q28d28r5q128K8v7dxxkY0RvUykGgW7D/t4+av6HS/OG5LKZWMsdG9nQK/AwWI/X//k4N1FVXVSyigCpp5pYfIoC22zdZRVqixc7+LFLysapK9fZyNXn21lQBcjNrOgvEplzS4Pr31jZ39R4mXkHJty7PXpOTZq6jm6gMlCiKMN3FYvmuR3K6V8hjCV8fo97qU3PlcytinPjESQAdbsctO1jYGj5X627PeQZdNxZr+AW9dNzxWzIb828wf9B0oqVOavd+LySMb0SaFrGz3r8z3c+nwJXn8NE8yamsElo8wUlPhZsN6JlDB+YAolFSpd2uipdEoueLio1jsmjTTzwNQMyuwqS7e4KLX7aZet56wBKfhVuPX5klpp55oKvU7xfvt47rYMixJev/E3Qog36r3pRM9sIk0zCDiUngswsJtp7K0XpC17cZ59TMO3xY+hPUy89o2dl76qKf124TAzj1yVwdVnWdmQX2OrGtTNyFVnWTlU7OOap4o5XhVwyvzXvAqeuSWbUaeZuGa8lde/DbhqD+5u4pJRZnYVeLnh6eKQtfHVb+y8Pj2HtFSFSmdtM0jnPD33XZbOym0uZrxWVmtG6fqdntl3t+LBaelc/uSxhP0Gr/4hc2WGRQkfYM80pfOhETJAOKrdya4AQuFGN56bNnzUaSmbmvLcaDhS6uflsLp/AF/+6MDhlnVSz180PDA7vvpNZajzIZBQ4pn/HEdKuGhEjVPnxGGBgMmXv7LXMjW7PJJ/fRndn3/KGAt6nWDOwirSzIJsmxL6F1gG3HRra2hScclw3HBO2op+nU3hnb8IuKepz22yz7UQolRKeQmwgoAywvDsb7PyLnykqLCw1H/C+vWxYuchb50kD6qEY8f9dSqPBIM11u6uKxvsK/RRXOGnXbaOtFQFu1MNXR8tR8/6PdHli2C9o5fvaDiZao5NF3fugEic3jNly20Xpg0JazoATBVCNFnISIjTvRBio5TyGuBjQCiC3Ln3ttpy7qyizESlm49W0xfA56+bsCFYEiZaRA9AcYVKq3Qd1lSB3Rm43q8SNZO4wy2jOqAEk07c/WppgzkKmyoItsrQHX3hd1nZBLJ6ADgJCH0JWVsSFnUhhPhESvkUMBMgzaz0mT0jZ/m0vxwbfYJbE44As+jItilRR19Otbt3pVOGrm+TpcNmVuowgdkkSDUKIl1Qgu8oLPPXSkOXSOh1iveD+1oVKgr9wpp/I4RYm6h3JDpp/33A18GDHu0Mo++YaKvXFq0VdlZnBB/cve7k0zFXT45NR6svp0IAAAQaSURBVEGJH3v1rBK8flC3ujvYQd2iT2BB6T48X3Gi8cb07FXpFiW88/8uhHg/ke9IKANU16e9EtgTbLt2gnXE2D4pGxP5nhPhs+ro35vOs9bKD6RT4K5LbAgBn62siRD+YnXAU+qWX6WRaqzZGacYRb1ZRD5YUoVfDcQORvNJMJsEEwY1njnuuNi2tHcnQ/huagHwQKMfWA8SG3gHCCHKpJQTgVUQqGH/j5uz2k58+OiRI2W+Nol+XzSs2+PhnUWVXHWWlY9n5bJgvRO3VzKqdwpd8gJ6gDlhPnw/7Xbznx8cTBpp5sNZuSzaENADnNU/laPHa2aKcOQf8fH4++XMmpbBi7dns2qHm52HvOgU6NRaz9AeJn4+5mP+uvgzoQ3vadp87dnW8Cie/cC0RAh9kUg4AwAIIbZLKa8lEHcoFEGrj2a12nH2/YUZ7iSkoAN45j+BFLFTxlq4YJgZvQ4OHvPzwhcVvPN9VS0lEMATc8vZV+hj8mgzl59hocyusqBaE1ifJfCzVQ52HPJy5TgrQ7obGdojUKji2HGVeasdfNuIzm+dri96/ndZudQIfZXARCGEJqp2TUtiSSkfA2YFj/MP+1Zc9uTRBuvZ/5JhNArXgify8i0mESzbKwls9z7U6p3aFK6twUPAvOBB17b6UTMuSb5QeLLgjemt1oR1PsCTWnY+aMwA1ULhFUDIXDxtnHXkuH4pG+q/65eJGZNtS049RR8u9H1HYABpCq1nAIQQduASIBhtrP/7TVkdOuTqDmr97pMFI05L2TTtTOuIsKbdwOXVqnZNoTkDAAghdgLXACoEElG8f2+uI8UoNEtLf7KgXbbu8P/9NqstEFRCVBKw7Scl/CkpDAAghPgc+HPwOMUoer49o9UveikwGoXr/ftzyxURqs4ugeuFEFuTRUPSGKAajxKwFwDQpY1+5P2Xpy9JMg0tBrPvyvnJYhKnhTX9SQjxcb03aICkMkB1wcLrgRCHXzraMvr8oeafkklHS8ADUzMX92xnCLeTfA78Kdl0JHsGQAhRSUAoDK5xuj9fk9GlU67+52TT0lwYPyh13eRRqeGdvwO4unrXlFQknQEAhBC7gMupTlwsIOujWbn6XwITjO2TsvEv12X2pEYLaydg3m3Y+VAjaKoJPBGklA8Aj4eOofTVr+3bXvnaPkqrqmXNBZNBOJ+4PnP1mX1TRlIj8asE4vbnNXCrpmhuBhDABwRiD0Pwq/Lw2l2e3Wt2e/SHSnwpqnpyMkOKUfg75+pcI3qniB5tDX2FILJI0h+FEI81C3HVaPYfVkppBD4CJjY3LUnGP4QQM5qbiGaRAcJRHcxwGfAE1bkK/8tRCtzUEjofWsAMEA4pZTcCGsNfA52BzIbvOCkgCYRr7yJgHn9PK9NuY/D/eWutrXjnXkEAAAAASUVORK5CYII=;fontSize=16;" parent="1" vertex="1">
          <mxGeometry x="560" y="626" width="72.26" height="70" as="geometry" />
        </mxCell>
        <mxCell id="z8v7z7G2F0ZjTP9mHvDK-25" value="K8s-master-1" style="text;html=1;strokeColor=none;fillColor=none;align=center;verticalAlign=middle;whiteSpace=wrap;rounded=0;fontSize=16;" parent="1" vertex="1">
          <mxGeometry x="346.13" y="696" width="100" height="30" as="geometry" />
        </mxCell>
        <mxCell id="z8v7z7G2F0ZjTP9mHvDK-26" value="K8s-master-2" style="text;html=1;strokeColor=none;fillColor=none;align=center;verticalAlign=middle;whiteSpace=wrap;rounded=0;fontSize=16;" parent="1" vertex="1">
          <mxGeometry x="546.13" y="696" width="100" height="30" as="geometry" />
        </mxCell>
        <mxCell id="z8v7z7G2F0ZjTP9mHvDK-27" value="172.16.1.11/16" style="text;html=1;strokeColor=none;fillColor=none;align=center;verticalAlign=middle;whiteSpace=wrap;rounded=0;fontSize=16;" parent="1" vertex="1">
          <mxGeometry x="366.64" y="726" width="60" height="30" as="geometry" />
        </mxCell>
        <mxCell id="z8v7z7G2F0ZjTP9mHvDK-28" value="172.16.1.12/16" style="text;html=1;strokeColor=none;fillColor=none;align=center;verticalAlign=middle;whiteSpace=wrap;rounded=0;fontSize=16;" parent="1" vertex="1">
          <mxGeometry x="566.13" y="726" width="60" height="30" as="geometry" />
        </mxCell>
        <mxCell id="z8v7z7G2F0ZjTP9mHvDK-31" value="&lt;font style=&quot;font-size: 16px;&quot;&gt;Masters&lt;/font&gt;" style="text;html=1;strokeColor=none;fillColor=none;align=center;verticalAlign=middle;whiteSpace=wrap;rounded=0;" parent="1" vertex="1">
          <mxGeometry x="470" y="760" width="60" height="30" as="geometry" />
        </mxCell>
        <mxCell id="z8v7z7G2F0ZjTP9mHvDK-33" value="&lt;font style=&quot;font-size: 20px;&quot;&gt;&lt;b&gt;VIP&lt;/b&gt;&lt;br&gt;&lt;/font&gt;" style="ellipse;whiteSpace=wrap;html=1;aspect=fixed;" parent="1" vertex="1">
          <mxGeometry x="475" y="365" width="50" height="50" as="geometry" />
        </mxCell>
        <mxCell id="z8v7z7G2F0ZjTP9mHvDK-34" value="172.16.0.16/16" style="text;html=1;strokeColor=none;fillColor=none;align=center;verticalAlign=middle;whiteSpace=wrap;rounded=0;fontSize=16;" parent="1" vertex="1">
          <mxGeometry x="470" y="460" width="60" height="30" as="geometry" />
        </mxCell>
        <mxCell id="z8v7z7G2F0ZjTP9mHvDK-35" value="172.16.0.12/16" style="text;html=1;strokeColor=none;fillColor=none;align=center;verticalAlign=middle;whiteSpace=wrap;rounded=0;fontSize=16;" parent="1" vertex="1">
          <mxGeometry x="610" y="460" width="60" height="30" as="geometry" />
        </mxCell>
        <mxCell id="z8v7z7G2F0ZjTP9mHvDK-36" value="172.16.0.11/16" style="text;html=1;strokeColor=none;fillColor=none;align=center;verticalAlign=middle;whiteSpace=wrap;rounded=0;fontSize=16;" parent="1" vertex="1">
          <mxGeometry x="330" y="460" width="60" height="30" as="geometry" />
        </mxCell>
        <mxCell id="z8v7z7G2F0ZjTP9mHvDK-37" value="K8s-lb-1" style="text;html=1;strokeColor=none;fillColor=none;align=center;verticalAlign=middle;whiteSpace=wrap;rounded=0;fontSize=16;" parent="1" vertex="1">
          <mxGeometry x="310" y="430" width="100" height="30" as="geometry" />
        </mxCell>
        <mxCell id="z8v7z7G2F0ZjTP9mHvDK-38" value="K8s-lb-1" style="text;html=1;strokeColor=none;fillColor=none;align=center;verticalAlign=middle;whiteSpace=wrap;rounded=0;fontSize=16;" parent="1" vertex="1">
          <mxGeometry x="590" y="430" width="100" height="30" as="geometry" />
        </mxCell>
        <mxCell id="z8v7z7G2F0ZjTP9mHvDK-39" value="VIP" style="text;html=1;strokeColor=none;fillColor=none;align=center;verticalAlign=middle;whiteSpace=wrap;rounded=0;fontSize=16;" parent="1" vertex="1">
          <mxGeometry x="450" y="430" width="100" height="30" as="geometry" />
        </mxCell>
        <mxCell id="z8v7z7G2F0ZjTP9mHvDK-40" value="" style="shape=image;verticalLabelPosition=bottom;labelBackgroundColor=default;verticalAlign=top;aspect=fixed;imageAspect=0;image=data:image/png,iVBORw0KGgoAAAANSUhEUgAAAGQAAABkCAYAAABw4pVUAAAAAXNSR0IArs4c6QAAFBhJREFUeAHtXQlQFMmafrv79oqN2PveF7sbG7ERb9/MvLnUES/EY0aRAblB5JT7FORUOZQRPPBE8OQS8UDgeSCICF7YXY143ziMo1DVIFUNAooHzreRBdU2TTfdDd2IM9URGZn1V2ZV5vfln+ef1b/6lfgTERAREBEQERAREBEQERAREBEQERAREBEQERAREBEQERAREBEQERAReIfAhW75P1HtzJdSlp4juPqOls8auph/fBdLDJkMAcmz5r+XcrQvxbWUSDiGoTgGw7gWimOKZazc80Zr61+ZLFO/xAfXc/KPKLalkOKY3mEI0E4Oy3RIOHqDtEP+379E/IxWZtIkSTkmX8rSb/Ul4vazdvzQ04m7XSyudbTh+54OyDiG95u6O94yz7ur3gIhAPwBRAMoBJA5cE1k/2O0AvycHkSxtI2UZVh9iRDiPezuQNvL5zwpd56xkPf2oF4h530iJ+7py+edL37qOwbgCIC7AGQAdg24KT8nHEddFgB/JFUwa6Qs/ZMA8mj8G51PeRIIETc725XEtPb2/NT95tWlARLiR53xn+MDAPwxxdF5oyFAPe2VjlZeW0gzRsKkCSNhwcl7n1cAsPw54jnqMlEcs1MdUEOv73Vx4F716uVIXKa3Bz1vXt8GMBfAHgDFA+7rURfoQ36AlGOi9AX/Av0Dzj56gEttT4aMrIgWNHYr9HJXO9pw+xmLxi7FT7e72n0BWABwHHD//CHjOaq8Szh6CsXSb7QRUid/hJ0H8hHmtRg2Ez6H1ee/x8KJn2PBZ59g8dcWSElegeJzpyFtbxlCkLZnDpXTXZc728QRlqS5+S+lHPNgKEAMLskfY2dhLpxnTEGqiznKwqejJs4CtfEDLs4C5ZEzsMl9Gmy++Awucy2QU3poxKTI2JZzZFAxqtr1oSeWssxKdTJK62qxLMgPDlMmIcV5Jk7HzHxHgkCGmk+I2uY5DZaffgx/VyccuXBmRMTIFLTrh47piPPPr0VxdJdAyEXmEeIjQ+E7zxzF4eaojddNhFJbBgiqjpmJZMepmPfx7xDsuRgZ2zYhu2AvyqTn9CWosRj4kxEX6kNOKOPkyQIZZx8/hJ+jLXb6z9GpDeokaLo+GTUT691mIOLbGQiePxWWn36CQzUVepEi5WjnDxnXEeW9AfhTiqNbBUJiwoOQGzzbKGRoIijR0RzZhbl6ESLh6JoRFWo8JyIrrFS73ILiaG9+SKuQB8sUrVbC0jilkFsKZOw/dRyxjqYjgxAUaTUVh2pO6UVI/9pZy2/GM756503CMfOkLH1CyjKvBcBVfbIkImVbbklY+rYgD/F0Q3mU4f2FJk3QJKuJmwl7s4mQPG3WixCSL5mCCdC70OMxokzBTKc4+rwAsr4+meS5z5pusqaKEHQ41BxJifF6k9Gf95aS8YizzjydffToL6Qcs1dfAtTj/YG6iFSPr4cQUhNvgaPhM4bINWmALlnmklnYsmu7QYRIWeaxzsKPtwgNCsXfkMmUOsiGXBccLx0ysjoTZ4EEq4lI87REks1EnIwiQ2CVCaGB4QOhs5AQG2UQIaQMFzsf/914w1xrfiiO+2sZy1w1BHxNcXcU5SEvaHCHnu44GZKCNXj78Ax+rN6LZJfZSLKZgD8YoDFEw6oGJpSnomfC3Wq+wYRIOujPtQIwnm6Q5QWKaynVBLChspySg8hVIeTY0hlY77uQJ4MQIrimU7uw1nsBIr+ZgA3OX+FwyHQQTVLXHKJNmYvNELVgCq9lwn2bSV8aToiiZZ+ElU8aT9hrzEu/ocGwBgZ6F35/xTFs9pqlBDbNyQxM3SElEQIhgv/6XiXq9iRhW6AdYqynIdJyEiK+mYDIeRN5Ela5zUPF1ni8fnAaq1zmoDauf/Rm9elHkLK03vlSq1gNMoV8gUYw3reQNFWqEzq1jBtc4IqbDYize9dHpC6ep5UMgRR9/eLVwTgY1D+Cs/3yk9EQMlCultJrHY/+9n1zMOj9FCePHi0Jquml7c3wmGXGa8jxpebITViiJOSprAS3TuzGlZIs3C7fA67hqPKeQMrLu6fQdGYfrpZm41pZNh6dLcKre1V8vPsndiDT3QykP3GYNtngyqKaT5Vw46UO5r8GgfK+Lvr7DqZRJXNGKWSgkw2qYy2w13sKrhRv5cE8kB6LRdMnI9rZGqn+i5Do6Yhop2/x5sFpJSmd147Dw2IaAixnI9nHiY8XYTcfNTlr+TgvblVgte1EVMVYwN/FwSh55cvO0o/qnz791/fFg/K9ZNRhbDLI8zZmbsKRMHOsc56M9voyJeCCFozGX2k9CcXhFliVmmw8QoiBXjtTR2wAlOC8j4BUQceZgpCT9XXI8PkGK22+Ql9jtZKQvgfV2Bbtj6y4gEFydYJImtzkCOSlLFWmFeKssJmM71wtUFR5wriE9FtN+o85D2TYJ2OZbIpjGimW7jMmIZdanyAtOgRxbgsRbDUHCXYzhgB6Zm86vvno/3CvInfIPQF04ssObuX3QJ5dOz4oXpy1GVb7OGFNqDdWBnnhwuNGoxFD7MZkXS3/MCakUIrm31MK5qxAALH+I5aAlxVyoxUo92A+yrNX8wDeP5WLNT52g8AkHfZ3/ov6CanUTsj5ggwsNjfDwi8/U3boAlmx9nNBnk2uq3Z9h5zcbKPln8dGwZjepoviGH8Zy7wUyCA+sQh8+baPNzpTlY8mTPa/K/I34dmNcpzOWYes2MBBhBAQSzauwP410UPkAuDEJ8SROJeLM4fEW+3rivIdqWijSlGetRq7D+QblRApR98xqYZQCnkwAZmYXz7QYE5DLAFHQ4Jq2lO3ryIzJQZyaQnOFmRga5TfEEBVgR9JmGjYuYIMcFeOYU2EH8qvy4yWf6Es5AiESUipZ+UThX2M651PNRqbEYs/ISPG8OP8PfDqbhUqd6VhS5Sv0QlJC3RHTd56vG08A397ayNMDjWuUBincwfwsYrVd8DjnmdPBBNLdV/VDJOEm1TMMUfSrxBDt/2VxxDoZAsyn7h5YrdJCFkb7MH3Ie2XjyJ8iZdRK5NKhdxsFA0hNq0Dxsa7evteVQrW4Zr8WyqGysRouXXAkpzEJRaAKpkbNlzbdA/xy5bC8rNPYD3hczhMnYz9aTE8aPpoCBltkcnhq/tVuFO+V6dGbQjz4p99MnejwXsi+pZJ1k5XGoUQ4SEA7JkX3deJrSsx4X80YJj85HkX9HFEY/TJfO0P9+H69Wz42lhBdrYCvc9b0fOMRqjjQqT4LtJLQ7punED1njTedd8o10nIxnAfrPB2gZ/DQlxo/l6vfOpTFtU4Uk5+RsDSKD4AZ6a3p+fuACGPnz/jLcVbXnSD7h3ekTj6EEJWWkO9PbA8YAle9T7F274OpevpYlB+KA9poT46ATa0Y18XFYDtebtxoaXJJGQQYiQcU24UIoSHkHUZVcZJWLVTJ5qjft/Q6wOnT8JhqhmedTQriVAlpe81h0hXhyGEPKwuQGNV/hC5KjGk+ZIc2Azm0uEh8eL9vUZp86uxE1fDw8j77xKW+a06wKrDXn00QD29+nVKykpsS03USIZATOrSYFw9PnQCKL9UjIuFG/lFQzK5O5+/AbW561C+fRVOZq3mmy/1GToh7EppNpYvi1ADTx+ADYzDMulC5TaKz8/Khz/RanChyq9RSF2TgmVhQUhbn4ZANxe+WRLA1+T/+PA6Aqwtobg6ePlDVRvIuhUZlZG+RFWuHiZx3OfORMWtBoPzrl6Z9Li2NwoRwkOotrZ/0eOlehdsz6FC2E81Q1b6Khzak4llnm788gfpJzQRoSqrLT+CFX4eeHX/3TK7Oti6rkkTtsLLGXsO7tM7zyMtP5m3Gd0Yon+f453R80gzR9Kdvn8DrrPM0dryYBD4Z44dwpPvbyhlr1+xeN4tV16rklKSm42kQG+8vP9u5Vcgoam6AHUFG3jXc3PoKItsTiX5uiJzxxaTk0HKK2unDwsV26i+hGOqRkoEOVCTW3YIa9JTEerjgaKdWzQCTUDv6mxG3tZ12Lc9A5cvntIa7+ThfES5OaKp9sCgpon0FUzdYd6RfXOBKOKTZirZzw25RfrZ8I60vKrpTHZ8QcbSoaov0jecd/QIHM2nw2PeHKRGRyBlaQieNN3UCvS+zAy86GnVel9VU+5crYPHnFnYnRjGTwRVwVcPk44+2HY+TtTXjYlmvMNHTpvkgwTE6I1iGcW7F+keaewrL4Od2Vc4V1GKvjcKrSCTzpo0WTcvn8f5ilKt8VTJEMKl+TsR7WKDoPkzULZxOVRHU2SPnYy0wm3mIsxuPmIiw8aYjAGMFMwVk+weyhR0rL6EkONmrnMscFVyZliAa44fRvHe7bhRfw6ZqSvxw4Orw8YXiBD84pwsHNmUAKYsHgWxTlhma4FYh7mItJ2NpdazUBDnAro0DssXWWJZePD7IYT0Jazc06h9CHnYWeDX+hpME3uqeH9vjeASjdj+XSK2rVqOoh3a+xMB9OH8PRlrULl7FV6fXT2sS/Wygv8i5/dGCMXRd41OCHlg/zEz5pouTdmUtRkHd28bQgjb2oScTWl4+aJtyL3hgNd0r6P9EeKXeII6kD4sGYSs/Ss9YT9jKsgei668k/vkxC4x9M7el8MvrRxvkOiVbrhnm+wULzEGI8O54V6+OXsrDmkgpKp0P8jalCaA9ZGRUVhVWRESfD1g+9UEbIwOwPPaVJ2EKCqSEOVux68i+7k4IjNnJ8hipqYykEkrOT5HBiLrEqKRGhXGL+vERoSAnHPUlEYfGbHoNImWCA/tP+VEn9f03ZEj56tB1onUQVZfOFS/r+mazEfIhDA51B+2UyYjLjUJEalJiIsOxNpoL+xL8gC1Iwj3C6P4vqT7dDJe1a6C4uRKKCoSebKuHlyJHekRKDpbjJRjxQiKj8GCCV8g3N8He48c4I9YE1DPPLwNZ4sZKNu3e9BAhKw8p8dGINLfZxSbWPJEATuT+mTxUcrJnWQcEyljmeUUKw+hOOZkiKsTrstqh5CiCXRNssY79VgVHgjb6VMQHB6KlMMH4JO5A361EngXHkYgdZ13/rWXEFhYhNDsLIRtSEd4cgLCEuMQmLwCfuvXIUJyGX6nz/PphDTEJ/LlZSXwCA2F/WwLfJeeioSYKGSnp2jMM6lMYS722FNchNTvUuA+by6svvgU3jZW2J67Ux+itpiUiOEeLmUZu8qbDfBeMA91p49pLKAmEoiMrOySieFiJyeErU1D0HkpPHML4bX/MA+se+YuJRmqAI8mHCS9hvDiElhbWiEp2FfrKsG5kyX8Ms+6+GV49OAav2dz76YESaH+SIgM10WKcXYOhwNe273+I2wMTt2+gmV+PnCbZY4EX0+kRobodF7z52JJTDR88grhV30BhAC/6ovwzCuC98Ey+FXWYMmJKqOTQgjlicnYgKjFzjzY6pWGTFpJ86kuJ9fJYYH8ioT2/kSepA0vk8sbFMx/qmasuvEWDlSfBDnvMZxLSUmEz9JwBJwZIKD4GHzLT2Pxtmz4n5XCI2efkpTRaISutCGpq5G7OV0j8JrIILLG2zLEhgRo7/RZxt3kwA/3Aoqj21RJ0RUmlu5uVpZYJpHBPXMHAi7Uw2NPPt9fEK3gZedlfPOlC9DR3g+XNMButgXkzff1JqX3RRtcZ5uDjNI0lfW9n7giW5eaMqZNRr6kEJmxXqkBpKnyr62DV+5+eB8s5TXFPWsX/GovIeBivUmaLFUio7IycXDX0LmUJg05X1kGsgqdsTwaTubTkJWzczApLH1zuMo7JvekCnmQNvA1ycmGVeLRUngSAoqPYcnRSizekoWAcxQ89xYoZe6ZO01OBiEmvroasd6LdWrIU+YhTpXsV8br7mxBsJMtSi7WKEkZF+fa+eGwAV8MXRroh8Ct2/ja77k7n9cU34oauG/fhcCLl+GxK0epPao12VThYOlVuH8zRwm0Js3QJrtG1SAxJpInhFidkE+FjIkW6HqJIc3W+q0ZcLGxhstCa7g52WORgx0WOdrDxdYazt9awc3JAU4L5vM+CRviXO1sYTt3DrydHfV2Hg52WBMTMSJCiPlSkIsDyHl2suOqC6cxuy/pkJtrap7GWkaWPKwnfIEO9scRAaxNE7TJydwkzN31NfW0+X/HDGx9XyThmAtjTYCm9yWtTMCqpSH8xFMbkMaQk+3nKE+3PrevZ63QF6MxjcdbrQzzzURN4JlCRraSl/ovQbCjLfK3reetXIhhxXCOrE630Q/QyT0G29aE+7ekypVqAjyZexAZcfduSFB99CD8rBe8sP1qQu3MmTN/PaZAG/IyKStfZwqQR/JMYpS3Jm0VkpfH6nTV1yisWZ2E3KI8bN2a0ec0fdrj3C3rwt+86ZxztHCvr/P0qT86zZj6xHnalB/tzSZ97zjF7JzlJ7/zdnT81fj+6hwZZby/puvdh9BGQiBJQ1a0ZRy9xJBKOO7jNrS3/5uEa2kaKSgjSUf+9YD8jQXFyiUjSc+nYek+Mqca9wCPJIPkUL20nf5hxOAYYEEpY+Vrhc+6VuDhn8sU8m2G/JMCyaOUZZ7I2NZZIynrB5OG4lp+Q3E0ZSpSyPlHbTWanBomezWaNtXU8tNCjnn/Yv7shdRYiYLergcwyuUHNcA0yskhS1k7M0FX7ZSwzf9B+gSKY7aQf9oZcLv7Pw3SOtkkZju6MjUe7lMKZhqlYK7oA/awcYjNGMsk3MGdPxsP5fqg88DbDrO0DTFXNbSN5z9YwMmjx91XeD5oRlQyX9f+5N8pjvYZ+J+QBilHy4UvREhZppM0SeRPv2QKeQyZcKokFYMiAiICIgIiAiICIgIiAiICIgIiAiICIgIiAiICIgIiAiICIgIiAiICIgIiAiICIgIfCAL/D8JdtgVqHb5ZAAAAAElFTkSuQmCC;" parent="1" vertex="1">
          <mxGeometry x="827" y="340" width="100" height="100" as="geometry" />
        </mxCell>
        <mxCell id="z8v7z7G2F0ZjTP9mHvDK-53" value="" style="endArrow=classic;html=1;rounded=0;exitX=0.5;exitY=0;exitDx=0;exitDy=0;" parent="1" source="z8v7z7G2F0ZjTP9mHvDK-19" edge="1">
          <mxGeometry width="50" height="50" relative="1" as="geometry">
            <mxPoint x="590" y="240" as="sourcePoint" />
            <mxPoint x="360" y="240" as="targetPoint" />
          </mxGeometry>
        </mxCell>
        <mxCell id="z8v7z7G2F0ZjTP9mHvDK-54" value="" style="endArrow=classic;html=1;rounded=0;exitX=0.5;exitY=0;exitDx=0;exitDy=0;" parent="1" edge="1">
          <mxGeometry width="50" height="50" relative="1" as="geometry">
            <mxPoint x="639.5699999999999" y="350" as="sourcePoint" />
            <mxPoint x="639.5699999999999" y="240" as="targetPoint" />
          </mxGeometry>
        </mxCell>
        <mxCell id="z8v7z7G2F0ZjTP9mHvDK-56" value="" style="endArrow=classic;html=1;rounded=0;exitX=0.5;exitY=0;exitDx=0;exitDy=0;" parent="1" source="z8v7z7G2F0ZjTP9mHvDK-19" edge="1">
          <mxGeometry width="50" height="50" relative="1" as="geometry">
            <mxPoint x="360" y="340" as="sourcePoint" />
            <mxPoint x="640" y="240" as="targetPoint" />
          </mxGeometry>
        </mxCell>
        <mxCell id="z8v7z7G2F0ZjTP9mHvDK-58" value="" style="endArrow=classic;html=1;rounded=0;exitX=0.5;exitY=0;exitDx=0;exitDy=0;entryX=0.182;entryY=1;entryDx=0;entryDy=0;entryPerimeter=0;" parent="1" source="z8v7z7G2F0ZjTP9mHvDK-20" target="z8v7z7G2F0ZjTP9mHvDK-2" edge="1">
          <mxGeometry width="50" height="50" relative="1" as="geometry">
            <mxPoint x="659.5699999999999" y="370" as="sourcePoint" />
            <mxPoint x="659.5699999999999" y="260" as="targetPoint" />
          </mxGeometry>
        </mxCell>
        <mxCell id="z8v7z7G2F0ZjTP9mHvDK-61" value="" style="endArrow=classic;html=1;rounded=0;exitX=0.5;exitY=1;exitDx=0;exitDy=0;" parent="1" source="z8v7z7G2F0ZjTP9mHvDK-36" edge="1">
          <mxGeometry width="50" height="50" relative="1" as="geometry">
            <mxPoint x="433.28999999999996" y="570" as="sourcePoint" />
            <mxPoint x="360" y="600" as="targetPoint" />
          </mxGeometry>
        </mxCell>
        <mxCell id="z8v7z7G2F0ZjTP9mHvDK-62" value="" style="endArrow=classic;html=1;rounded=0;exitX=0.5;exitY=1;exitDx=0;exitDy=0;" parent="1" edge="1">
          <mxGeometry width="50" height="50" relative="1" as="geometry">
            <mxPoint x="639.55" y="490" as="sourcePoint" />
            <mxPoint x="639.55" y="600" as="targetPoint" />
          </mxGeometry>
        </mxCell>
        <mxCell id="z8v7z7G2F0ZjTP9mHvDK-63" value="" style="endArrow=classic;html=1;rounded=0;exitX=0.5;exitY=1;exitDx=0;exitDy=0;entryX=0.813;entryY=-0.007;entryDx=0;entryDy=0;entryPerimeter=0;" parent="1" source="z8v7z7G2F0ZjTP9mHvDK-36" target="z8v7z7G2F0ZjTP9mHvDK-22" edge="1">
          <mxGeometry width="50" height="50" relative="1" as="geometry">
            <mxPoint x="413.99999999999994" y="500" as="sourcePoint" />
            <mxPoint x="413.99999999999994" y="610" as="targetPoint" />
          </mxGeometry>
        </mxCell>
        <mxCell id="z8v7z7G2F0ZjTP9mHvDK-64" value="" style="endArrow=classic;html=1;rounded=0;exitX=0.5;exitY=1;exitDx=0;exitDy=0;entryX=0.195;entryY=-0.007;entryDx=0;entryDy=0;entryPerimeter=0;" parent="1" source="z8v7z7G2F0ZjTP9mHvDK-35" target="z8v7z7G2F0ZjTP9mHvDK-22" edge="1">
          <mxGeometry width="50" height="50" relative="1" as="geometry">
            <mxPoint x="370" y="500" as="sourcePoint" />
            <mxPoint x="648" y="609" as="targetPoint" />
          </mxGeometry>
        </mxCell>
        <mxCell id="z8v7z7G2F0ZjTP9mHvDK-66" value="" style="endArrow=classic;startArrow=classic;html=1;rounded=0;exitX=1;exitY=0.5;exitDx=0;exitDy=0;entryX=0;entryY=0.5;entryDx=0;entryDy=0;dashed=1;dashPattern=1 1;" parent="1" source="z8v7z7G2F0ZjTP9mHvDK-19" target="z8v7z7G2F0ZjTP9mHvDK-33" edge="1">
          <mxGeometry width="50" height="50" relative="1" as="geometry">
            <mxPoint x="600" y="470" as="sourcePoint" />
            <mxPoint x="650" y="420" as="targetPoint" />
          </mxGeometry>
        </mxCell>
        <mxCell id="z8v7z7G2F0ZjTP9mHvDK-68" value="" style="endArrow=classic;startArrow=classic;html=1;rounded=0;dashed=1;dashPattern=1 1;" parent="1" target="z8v7z7G2F0ZjTP9mHvDK-20" edge="1">
          <mxGeometry width="50" height="50" relative="1" as="geometry">
            <mxPoint x="520" y="390" as="sourcePoint" />
            <mxPoint x="600" y="389.55" as="targetPoint" />
          </mxGeometry>
        </mxCell>
        <mxCell id="z8v7z7G2F0ZjTP9mHvDK-78" value="" style="endArrow=none;html=1;rounded=0;exitX=0.5;exitY=0;exitDx=0;exitDy=0;" parent="1" source="z8v7z7G2F0ZjTP9mHvDK-40" edge="1">
          <mxGeometry width="50" height="50" relative="1" as="geometry">
            <mxPoint x="877" y="340" as="sourcePoint" />
            <mxPoint x="500" y="320" as="targetPoint" />
            <Array as="points">
              <mxPoint x="877" y="320" />
            </Array>
          </mxGeometry>
        </mxCell>
        <mxCell id="z8v7z7G2F0ZjTP9mHvDK-79" value="" style="endArrow=classic;html=1;rounded=0;entryX=0.5;entryY=0;entryDx=0;entryDy=0;" parent="1" target="z8v7z7G2F0ZjTP9mHvDK-33" edge="1">
          <mxGeometry width="50" height="50" relative="1" as="geometry">
            <mxPoint x="500" y="320" as="sourcePoint" />
            <mxPoint x="530" y="310" as="targetPoint" />
          </mxGeometry>
        </mxCell>
      </root>
    </mxGraphModel>
  </diagram>
</mxfile>
